<mxfile host="65bd71144e">
    <diagram id="Lm9ZB_Z3m4b_wgLSVthe" name="Page-1">
        <mxGraphModel dx="1356" dy="543" grid="1" gridSize="10" guides="1" tooltips="1" connect="1" arrows="1" fold="1" page="0" pageScale="1" pageWidth="850" pageHeight="1100" math="0" shadow="0">
            <root>
                <mxCell id="0"/>
                <mxCell id="1" parent="0"/>
                <mxCell id="2" value="Users" style="shape=table;startSize=30;container=1;collapsible=1;childLayout=tableLayout;fixedRows=1;rowLines=0;fontStyle=0;align=center;resizeLast=1;fontFamily=Tenorite;fontSource=https%3A%2F%2Ffonts.cdnfonts.com%2Fcss%2Ftenorite%3Fstyles%3D102681%2C102679%2C102680%2C102678;" parent="1" vertex="1">
                    <mxGeometry x="390" y="290" width="180" height="270" as="geometry"/>
                </mxCell>
                <mxCell id="3" value="" style="shape=tableRow;horizontal=0;startSize=0;swimlaneHead=0;swimlaneBody=0;fillColor=none;collapsible=0;dropTarget=0;points=[[0,0.5],[1,0.5]];portConstraint=eastwest;top=0;left=0;right=0;bottom=1;fontFamily=Tenorite;fontSource=https%3A%2F%2Ffonts.cdnfonts.com%2Fcss%2Ftenorite%3Fstyles%3D102681%2C102679%2C102680%2C102678;fontStyle=0" parent="2" vertex="1">
                    <mxGeometry y="30" width="180" height="30" as="geometry"/>
                </mxCell>
                <mxCell id="4" value="PK" style="shape=partialRectangle;connectable=0;fillColor=none;top=0;left=0;bottom=0;right=0;fontStyle=0;overflow=hidden;fontFamily=Tenorite;fontSource=https%3A%2F%2Ffonts.cdnfonts.com%2Fcss%2Ftenorite%3Fstyles%3D102681%2C102679%2C102680%2C102678;" parent="3" vertex="1">
                    <mxGeometry width="30" height="30" as="geometry">
                        <mxRectangle width="30" height="30" as="alternateBounds"/>
                    </mxGeometry>
                </mxCell>
                <mxCell id="5" value="id" style="shape=partialRectangle;connectable=0;fillColor=none;top=0;left=0;bottom=0;right=0;align=left;spacingLeft=6;fontStyle=4;overflow=hidden;fontFamily=Tenorite;fontSource=https%3A%2F%2Ffonts.cdnfonts.com%2Fcss%2Ftenorite%3Fstyles%3D102681%2C102679%2C102680%2C102678;" parent="3" vertex="1">
                    <mxGeometry x="30" width="150" height="30" as="geometry">
                        <mxRectangle width="150" height="30" as="alternateBounds"/>
                    </mxGeometry>
                </mxCell>
                <mxCell id="6" value="" style="shape=tableRow;horizontal=0;startSize=0;swimlaneHead=0;swimlaneBody=0;fillColor=none;collapsible=0;dropTarget=0;points=[[0,0.5],[1,0.5]];portConstraint=eastwest;top=0;left=0;right=0;bottom=0;fontFamily=Tenorite;fontSource=https%3A%2F%2Ffonts.cdnfonts.com%2Fcss%2Ftenorite%3Fstyles%3D102681%2C102679%2C102680%2C102678;fontStyle=0" parent="2" vertex="1">
                    <mxGeometry y="60" width="180" height="30" as="geometry"/>
                </mxCell>
                <mxCell id="7" value="" style="shape=partialRectangle;connectable=0;fillColor=none;top=0;left=0;bottom=0;right=0;editable=1;overflow=hidden;fontFamily=Tenorite;fontSource=https%3A%2F%2Ffonts.cdnfonts.com%2Fcss%2Ftenorite%3Fstyles%3D102681%2C102679%2C102680%2C102678;fontStyle=0" parent="6" vertex="1">
                    <mxGeometry width="30" height="30" as="geometry">
                        <mxRectangle width="30" height="30" as="alternateBounds"/>
                    </mxGeometry>
                </mxCell>
                <mxCell id="8" value="employee_id" style="shape=partialRectangle;connectable=0;fillColor=none;top=1;left=0;bottom=1;right=1;align=left;spacingLeft=6;overflow=hidden;fontFamily=Tenorite;fontSource=https%3A%2F%2Ffonts.cdnfonts.com%2Fcss%2Ftenorite%3Fstyles%3D102681%2C102679%2C102680%2C102678;fontStyle=0" parent="6" vertex="1">
                    <mxGeometry x="30" width="150" height="30" as="geometry">
                        <mxRectangle width="150" height="30" as="alternateBounds"/>
                    </mxGeometry>
                </mxCell>
                <mxCell id="9" value="" style="shape=tableRow;horizontal=0;startSize=0;swimlaneHead=0;swimlaneBody=0;fillColor=none;collapsible=0;dropTarget=0;points=[[0,0.5],[1,0.5]];portConstraint=eastwest;top=0;left=0;right=0;bottom=0;fontFamily=Tenorite;fontSource=https%3A%2F%2Ffonts.cdnfonts.com%2Fcss%2Ftenorite%3Fstyles%3D102681%2C102679%2C102680%2C102678;fontStyle=0" parent="2" vertex="1">
                    <mxGeometry y="90" width="180" height="30" as="geometry"/>
                </mxCell>
                <mxCell id="10" value="" style="shape=partialRectangle;connectable=0;fillColor=none;top=0;left=0;bottom=0;right=0;editable=1;overflow=hidden;fontFamily=Tenorite;fontSource=https%3A%2F%2Ffonts.cdnfonts.com%2Fcss%2Ftenorite%3Fstyles%3D102681%2C102679%2C102680%2C102678;fontStyle=0" parent="9" vertex="1">
                    <mxGeometry width="30" height="30" as="geometry">
                        <mxRectangle width="30" height="30" as="alternateBounds"/>
                    </mxGeometry>
                </mxCell>
                <mxCell id="11" value="employee_fname" style="shape=partialRectangle;connectable=0;fillColor=none;top=1;left=0;bottom=1;right=1;align=left;spacingLeft=6;overflow=hidden;fontFamily=Tenorite;fontSource=https%3A%2F%2Ffonts.cdnfonts.com%2Fcss%2Ftenorite%3Fstyles%3D102681%2C102679%2C102680%2C102678;fontStyle=0" parent="9" vertex="1">
                    <mxGeometry x="30" width="150" height="30" as="geometry">
                        <mxRectangle width="150" height="30" as="alternateBounds"/>
                    </mxGeometry>
                </mxCell>
                <mxCell id="12" value="" style="shape=tableRow;horizontal=0;startSize=0;swimlaneHead=0;swimlaneBody=0;fillColor=none;collapsible=0;dropTarget=0;points=[[0,0.5],[1,0.5]];portConstraint=eastwest;top=0;left=0;right=0;bottom=0;fontFamily=Tenorite;fontSource=https%3A%2F%2Ffonts.cdnfonts.com%2Fcss%2Ftenorite%3Fstyles%3D102681%2C102679%2C102680%2C102678;fontStyle=0" parent="2" vertex="1">
                    <mxGeometry y="120" width="180" height="30" as="geometry"/>
                </mxCell>
                <mxCell id="13" value="" style="shape=partialRectangle;connectable=0;fillColor=none;top=0;left=0;bottom=0;right=0;editable=1;overflow=hidden;fontFamily=Tenorite;fontSource=https%3A%2F%2Ffonts.cdnfonts.com%2Fcss%2Ftenorite%3Fstyles%3D102681%2C102679%2C102680%2C102678;fontStyle=0" parent="12" vertex="1">
                    <mxGeometry width="30" height="30" as="geometry">
                        <mxRectangle width="30" height="30" as="alternateBounds"/>
                    </mxGeometry>
                </mxCell>
                <mxCell id="14" value="employee_lname" style="shape=partialRectangle;connectable=0;fillColor=none;top=1;left=0;bottom=1;right=1;align=left;spacingLeft=6;overflow=hidden;fontFamily=Tenorite;fontSource=https%3A%2F%2Ffonts.cdnfonts.com%2Fcss%2Ftenorite%3Fstyles%3D102681%2C102679%2C102680%2C102678;fontStyle=0" parent="12" vertex="1">
                    <mxGeometry x="30" width="150" height="30" as="geometry">
                        <mxRectangle width="150" height="30" as="alternateBounds"/>
                    </mxGeometry>
                </mxCell>
                <mxCell id="18" value="email" style="shape=partialRectangle;connectable=0;fillColor=none;top=1;left=1;bottom=1;right=1;align=left;spacingLeft=6;overflow=hidden;fontFamily=Tenorite;fontSource=https%3A%2F%2Ffonts.cdnfonts.com%2Fcss%2Ftenorite%3Fstyles%3D102681%2C102679%2C102680%2C102678;fontStyle=0" parent="1" vertex="1">
                    <mxGeometry x="420" y="530" width="150" height="30" as="geometry">
                        <mxRectangle width="150" height="30" as="alternateBounds"/>
                    </mxGeometry>
                </mxCell>
                <mxCell id="23" value="" style="shape=partialRectangle;connectable=0;fillColor=none;top=0;left=0;bottom=0;right=0;editable=1;overflow=hidden;fontFamily=Tenorite;fontSource=https%3A%2F%2Ffonts.cdnfonts.com%2Fcss%2Ftenorite%3Fstyles%3D102681%2C102679%2C102680%2C102678;fontStyle=0" parent="1" vertex="1">
                    <mxGeometry x="390" y="440" width="30" height="30" as="geometry">
                        <mxRectangle width="30" height="30" as="alternateBounds"/>
                    </mxGeometry>
                </mxCell>
                <mxCell id="24" value="" style="shape=partialRectangle;connectable=0;fillColor=none;top=0;left=0;bottom=0;right=0;editable=1;overflow=hidden;fontFamily=Tenorite;fontSource=https%3A%2F%2Ffonts.cdnfonts.com%2Fcss%2Ftenorite%3Fstyles%3D102681%2C102679%2C102680%2C102678;fontStyle=0" parent="1" vertex="1">
                    <mxGeometry x="390" y="500" width="30" height="30" as="geometry">
                        <mxRectangle width="30" height="30" as="alternateBounds"/>
                    </mxGeometry>
                </mxCell>
                <mxCell id="25" value="" style="shape=partialRectangle;connectable=0;fillColor=none;top=0;left=0;bottom=0;right=0;editable=1;overflow=hidden;fontFamily=Tenorite;fontSource=https%3A%2F%2Ffonts.cdnfonts.com%2Fcss%2Ftenorite%3Fstyles%3D102681%2C102679%2C102680%2C102678;fontStyle=0" parent="1" vertex="1">
                    <mxGeometry x="390" y="530" width="30" height="30" as="geometry">
                        <mxRectangle width="30" height="30" as="alternateBounds"/>
                    </mxGeometry>
                </mxCell>
                <mxCell id="26" value="Roles" style="shape=table;startSize=30;container=1;collapsible=1;childLayout=tableLayout;fixedRows=1;rowLines=0;fontStyle=0;align=center;resizeLast=1;fontFamily=Tenorite;fontSource=https%3A%2F%2Ffonts.cdnfonts.com%2Fcss%2Ftenorite%3Fstyles%3D102681%2C102679%2C102680%2C102678;" parent="1" vertex="1">
                    <mxGeometry x="970" y="270" width="180" height="150" as="geometry"/>
                </mxCell>
                <mxCell id="27" value="" style="shape=tableRow;horizontal=0;startSize=0;swimlaneHead=0;swimlaneBody=0;fillColor=none;collapsible=0;dropTarget=0;points=[[0,0.5],[1,0.5]];portConstraint=eastwest;top=0;left=0;right=0;bottom=1;fontFamily=Tenorite;fontSource=https%3A%2F%2Ffonts.cdnfonts.com%2Fcss%2Ftenorite%3Fstyles%3D102681%2C102679%2C102680%2C102678;fontStyle=0" parent="26" vertex="1">
                    <mxGeometry y="30" width="180" height="30" as="geometry"/>
                </mxCell>
                <mxCell id="28" value="PK" style="shape=partialRectangle;connectable=0;fillColor=none;top=0;left=0;bottom=0;right=0;fontStyle=0;overflow=hidden;fontFamily=Tenorite;fontSource=https%3A%2F%2Ffonts.cdnfonts.com%2Fcss%2Ftenorite%3Fstyles%3D102681%2C102679%2C102680%2C102678;" parent="27" vertex="1">
                    <mxGeometry width="30" height="30" as="geometry">
                        <mxRectangle width="30" height="30" as="alternateBounds"/>
                    </mxGeometry>
                </mxCell>
                <mxCell id="29" value="id" style="shape=partialRectangle;connectable=0;fillColor=none;top=0;left=0;bottom=0;right=0;align=left;spacingLeft=6;fontStyle=4;overflow=hidden;fontFamily=Tenorite;fontSource=https%3A%2F%2Ffonts.cdnfonts.com%2Fcss%2Ftenorite%3Fstyles%3D102681%2C102679%2C102680%2C102678;" parent="27" vertex="1">
                    <mxGeometry x="30" width="150" height="30" as="geometry">
                        <mxRectangle width="150" height="30" as="alternateBounds"/>
                    </mxGeometry>
                </mxCell>
                <mxCell id="30" value="" style="shape=tableRow;horizontal=0;startSize=0;swimlaneHead=0;swimlaneBody=0;fillColor=none;collapsible=0;dropTarget=0;points=[[0,0.5],[1,0.5]];portConstraint=eastwest;top=0;left=0;right=0;bottom=0;fontFamily=Tenorite;fontSource=https%3A%2F%2Ffonts.cdnfonts.com%2Fcss%2Ftenorite%3Fstyles%3D102681%2C102679%2C102680%2C102678;fontStyle=0" parent="26" vertex="1">
                    <mxGeometry y="60" width="180" height="30" as="geometry"/>
                </mxCell>
                <mxCell id="31" value="" style="shape=partialRectangle;connectable=0;fillColor=none;top=0;left=0;bottom=0;right=0;editable=1;overflow=hidden;fontFamily=Tenorite;fontSource=https%3A%2F%2Ffonts.cdnfonts.com%2Fcss%2Ftenorite%3Fstyles%3D102681%2C102679%2C102680%2C102678;fontStyle=0" parent="30" vertex="1">
                    <mxGeometry width="30" height="30" as="geometry">
                        <mxRectangle width="30" height="30" as="alternateBounds"/>
                    </mxGeometry>
                </mxCell>
                <mxCell id="32" value="role_name" style="shape=partialRectangle;connectable=0;fillColor=none;top=1;left=0;bottom=1;right=1;align=left;spacingLeft=6;overflow=hidden;fontFamily=Tenorite;fontSource=https%3A%2F%2Ffonts.cdnfonts.com%2Fcss%2Ftenorite%3Fstyles%3D102681%2C102679%2C102680%2C102678;fontStyle=0" parent="30" vertex="1">
                    <mxGeometry x="30" width="150" height="30" as="geometry">
                        <mxRectangle width="150" height="30" as="alternateBounds"/>
                    </mxGeometry>
                </mxCell>
                <mxCell id="33" value="" style="shape=tableRow;horizontal=0;startSize=0;swimlaneHead=0;swimlaneBody=0;fillColor=none;collapsible=0;dropTarget=0;points=[[0,0.5],[1,0.5]];portConstraint=eastwest;top=0;left=0;right=0;bottom=0;fontFamily=Tenorite;fontSource=https%3A%2F%2Ffonts.cdnfonts.com%2Fcss%2Ftenorite%3Fstyles%3D102681%2C102679%2C102680%2C102678;fontStyle=0" parent="26" vertex="1">
                    <mxGeometry y="90" width="180" height="30" as="geometry"/>
                </mxCell>
                <mxCell id="34" value="" style="shape=partialRectangle;connectable=0;fillColor=none;top=0;left=0;bottom=0;right=0;editable=1;overflow=hidden;fontFamily=Tenorite;fontSource=https%3A%2F%2Ffonts.cdnfonts.com%2Fcss%2Ftenorite%3Fstyles%3D102681%2C102679%2C102680%2C102678;fontStyle=0" parent="33" vertex="1">
                    <mxGeometry width="30" height="30" as="geometry">
                        <mxRectangle width="30" height="30" as="alternateBounds"/>
                    </mxGeometry>
                </mxCell>
                <mxCell id="35" value="description" style="shape=partialRectangle;connectable=0;fillColor=none;top=1;left=0;bottom=1;right=1;align=left;spacingLeft=6;overflow=hidden;fontFamily=Tenorite;fontSource=https%3A%2F%2Ffonts.cdnfonts.com%2Fcss%2Ftenorite%3Fstyles%3D102681%2C102679%2C102680%2C102678;fontStyle=0" parent="33" vertex="1">
                    <mxGeometry x="30" width="150" height="30" as="geometry">
                        <mxRectangle width="150" height="30" as="alternateBounds"/>
                    </mxGeometry>
                </mxCell>
                <mxCell id="36" value="" style="shape=tableRow;horizontal=0;startSize=0;swimlaneHead=0;swimlaneBody=0;fillColor=none;collapsible=0;dropTarget=0;points=[[0,0.5],[1,0.5]];portConstraint=eastwest;top=0;left=0;right=0;bottom=0;fontFamily=Tenorite;fontSource=https%3A%2F%2Ffonts.cdnfonts.com%2Fcss%2Ftenorite%3Fstyles%3D102681%2C102679%2C102680%2C102678;fontStyle=0" parent="26" vertex="1">
                    <mxGeometry y="120" width="180" height="30" as="geometry"/>
                </mxCell>
                <mxCell id="37" value="" style="shape=partialRectangle;connectable=0;fillColor=none;top=0;left=0;bottom=0;right=0;editable=1;overflow=hidden;fontFamily=Tenorite;fontSource=https%3A%2F%2Ffonts.cdnfonts.com%2Fcss%2Ftenorite%3Fstyles%3D102681%2C102679%2C102680%2C102678;fontStyle=0" parent="36" vertex="1">
                    <mxGeometry width="30" height="30" as="geometry">
                        <mxRectangle width="30" height="30" as="alternateBounds"/>
                    </mxGeometry>
                </mxCell>
                <mxCell id="38" value="status_id" style="shape=partialRectangle;connectable=0;fillColor=none;top=1;left=0;bottom=1;right=1;align=left;spacingLeft=6;overflow=hidden;fontFamily=Tenorite;fontSource=https%3A%2F%2Ffonts.cdnfonts.com%2Fcss%2Ftenorite%3Fstyles%3D102681%2C102679%2C102680%2C102678;fontStyle=0" parent="36" vertex="1">
                    <mxGeometry x="30" width="150" height="30" as="geometry">
                        <mxRectangle width="150" height="30" as="alternateBounds"/>
                    </mxGeometry>
                </mxCell>
                <mxCell id="46" value="User_Roles" style="shape=table;startSize=30;container=1;collapsible=1;childLayout=tableLayout;fixedRows=1;rowLines=0;fontStyle=0;align=center;resizeLast=1;fontFamily=Tenorite;fontSource=https%3A%2F%2Ffonts.cdnfonts.com%2Fcss%2Ftenorite%3Fstyles%3D102681%2C102679%2C102680%2C102678;" parent="1" vertex="1">
                    <mxGeometry x="750" y="290" width="180" height="120" as="geometry"/>
                </mxCell>
                <mxCell id="47" value="" style="shape=tableRow;horizontal=0;startSize=0;swimlaneHead=0;swimlaneBody=0;fillColor=none;collapsible=0;dropTarget=0;points=[[0,0.5],[1,0.5]];portConstraint=eastwest;top=0;left=0;right=0;bottom=1;fontFamily=Tenorite;fontSource=https%3A%2F%2Ffonts.cdnfonts.com%2Fcss%2Ftenorite%3Fstyles%3D102681%2C102679%2C102680%2C102678;fontStyle=0" parent="46" vertex="1">
                    <mxGeometry y="30" width="180" height="30" as="geometry"/>
                </mxCell>
                <mxCell id="48" value="PK" style="shape=partialRectangle;connectable=0;fillColor=none;top=0;left=0;bottom=0;right=0;fontStyle=0;overflow=hidden;fontFamily=Tenorite;fontSource=https%3A%2F%2Ffonts.cdnfonts.com%2Fcss%2Ftenorite%3Fstyles%3D102681%2C102679%2C102680%2C102678;" parent="47" vertex="1">
                    <mxGeometry width="30" height="30" as="geometry">
                        <mxRectangle width="30" height="30" as="alternateBounds"/>
                    </mxGeometry>
                </mxCell>
                <mxCell id="49" value="id" style="shape=partialRectangle;connectable=0;fillColor=none;top=0;left=0;bottom=0;right=0;align=left;spacingLeft=6;fontStyle=4;overflow=hidden;fontFamily=Tenorite;fontSource=https%3A%2F%2Ffonts.cdnfonts.com%2Fcss%2Ftenorite%3Fstyles%3D102681%2C102679%2C102680%2C102678;" parent="47" vertex="1">
                    <mxGeometry x="30" width="150" height="30" as="geometry">
                        <mxRectangle width="150" height="30" as="alternateBounds"/>
                    </mxGeometry>
                </mxCell>
                <mxCell id="50" value="" style="shape=tableRow;horizontal=0;startSize=0;swimlaneHead=0;swimlaneBody=0;fillColor=none;collapsible=0;dropTarget=0;points=[[0,0.5],[1,0.5]];portConstraint=eastwest;top=0;left=0;right=0;bottom=0;fontFamily=Tenorite;fontSource=https%3A%2F%2Ffonts.cdnfonts.com%2Fcss%2Ftenorite%3Fstyles%3D102681%2C102679%2C102680%2C102678;fontStyle=0" parent="46" vertex="1">
                    <mxGeometry y="60" width="180" height="30" as="geometry"/>
                </mxCell>
                <mxCell id="51" value="" style="shape=partialRectangle;connectable=0;fillColor=none;top=0;left=0;bottom=0;right=0;editable=1;overflow=hidden;fontFamily=Tenorite;fontSource=https%3A%2F%2Ffonts.cdnfonts.com%2Fcss%2Ftenorite%3Fstyles%3D102681%2C102679%2C102680%2C102678;fontStyle=0" parent="50" vertex="1">
                    <mxGeometry width="30" height="30" as="geometry">
                        <mxRectangle width="30" height="30" as="alternateBounds"/>
                    </mxGeometry>
                </mxCell>
                <mxCell id="52" value="user_id" style="shape=partialRectangle;connectable=0;fillColor=none;top=1;left=0;bottom=1;right=1;align=left;spacingLeft=6;overflow=hidden;fontFamily=Tenorite;fontSource=https%3A%2F%2Ffonts.cdnfonts.com%2Fcss%2Ftenorite%3Fstyles%3D102681%2C102679%2C102680%2C102678;fontStyle=0" parent="50" vertex="1">
                    <mxGeometry x="30" width="150" height="30" as="geometry">
                        <mxRectangle width="150" height="30" as="alternateBounds"/>
                    </mxGeometry>
                </mxCell>
                <mxCell id="53" value="" style="shape=tableRow;horizontal=0;startSize=0;swimlaneHead=0;swimlaneBody=0;fillColor=none;collapsible=0;dropTarget=0;points=[[0,0.5],[1,0.5]];portConstraint=eastwest;top=0;left=0;right=0;bottom=0;fontFamily=Tenorite;fontSource=https%3A%2F%2Ffonts.cdnfonts.com%2Fcss%2Ftenorite%3Fstyles%3D102681%2C102679%2C102680%2C102678;fontStyle=0" parent="46" vertex="1">
                    <mxGeometry y="90" width="180" height="30" as="geometry"/>
                </mxCell>
                <mxCell id="54" value="" style="shape=partialRectangle;connectable=0;fillColor=none;top=0;left=0;bottom=0;right=0;editable=1;overflow=hidden;fontFamily=Tenorite;fontSource=https%3A%2F%2Ffonts.cdnfonts.com%2Fcss%2Ftenorite%3Fstyles%3D102681%2C102679%2C102680%2C102678;fontStyle=0" parent="53" vertex="1">
                    <mxGeometry width="30" height="30" as="geometry">
                        <mxRectangle width="30" height="30" as="alternateBounds"/>
                    </mxGeometry>
                </mxCell>
                <mxCell id="55" value="role_id" style="shape=partialRectangle;connectable=0;fillColor=none;top=1;left=0;bottom=1;right=1;align=left;spacingLeft=6;overflow=hidden;fontFamily=Tenorite;fontSource=https%3A%2F%2Ffonts.cdnfonts.com%2Fcss%2Ftenorite%3Fstyles%3D102681%2C102679%2C102680%2C102678;fontStyle=0" parent="53" vertex="1">
                    <mxGeometry x="30" width="150" height="30" as="geometry">
                        <mxRectangle width="150" height="30" as="alternateBounds"/>
                    </mxGeometry>
                </mxCell>
                <mxCell id="59" style="edgeStyle=orthogonalEdgeStyle;html=1;fontFamily=Tenorite;fontSource=https%3A%2F%2Ffonts.cdnfonts.com%2Fcss%2Ftenorite%3Fstyles%3D102681%2C102679%2C102680%2C102678;rounded=0;entryX=0;entryY=0.5;entryDx=0;entryDy=0;startArrow=ERmandOne;startFill=0;endArrow=ERoneToMany;endFill=0;" parent="1" source="3" target="50" edge="1">
                    <mxGeometry relative="1" as="geometry"/>
                </mxCell>
                <mxCell id="60" value="FK" style="shape=partialRectangle;connectable=0;fillColor=none;top=1;left=1;bottom=1;right=1;fontStyle=0;overflow=hidden;fontFamily=Tenorite;fontSource=https%3A%2F%2Ffonts.cdnfonts.com%2Fcss%2Ftenorite%3Fstyles%3D102681%2C102679%2C102680%2C102678;" parent="1" vertex="1">
                    <mxGeometry x="750" y="350" width="30" height="30" as="geometry">
                        <mxRectangle width="30" height="30" as="alternateBounds"/>
                    </mxGeometry>
                </mxCell>
                <mxCell id="61" style="edgeStyle=orthogonalEdgeStyle;rounded=0;html=1;entryX=1;entryY=0.5;entryDx=0;entryDy=0;fontFamily=Tenorite;fontSource=https%3A%2F%2Ffonts.cdnfonts.com%2Fcss%2Ftenorite%3Fstyles%3D102681%2C102679%2C102680%2C102678;startArrow=ERmandOne;startFill=0;endArrow=ERoneToMany;endFill=0;" parent="1" source="27" target="53" edge="1">
                    <mxGeometry relative="1" as="geometry"/>
                </mxCell>
                <mxCell id="62" value="FK" style="shape=partialRectangle;connectable=0;fillColor=none;top=1;left=1;bottom=1;right=1;fontStyle=0;overflow=hidden;fontFamily=Tenorite;fontSource=https%3A%2F%2Ffonts.cdnfonts.com%2Fcss%2Ftenorite%3Fstyles%3D102681%2C102679%2C102680%2C102678;" parent="1" vertex="1">
                    <mxGeometry x="750" y="380" width="30" height="30" as="geometry">
                        <mxRectangle width="30" height="30" as="alternateBounds"/>
                    </mxGeometry>
                </mxCell>
                <mxCell id="96" value="" style="group" parent="1" vertex="1" connectable="0">
                    <mxGeometry x="750" y="520" width="180" height="180" as="geometry"/>
                </mxCell>
                <mxCell id="76" value="Requests" style="shape=table;startSize=30;container=1;collapsible=1;childLayout=tableLayout;fixedRows=1;rowLines=0;fontStyle=0;align=center;resizeLast=1;fontFamily=Tenorite;fontSource=https%3A%2F%2Ffonts.cdnfonts.com%2Fcss%2Ftenorite%3Fstyles%3D102681%2C102679%2C102680%2C102678;" parent="96" vertex="1">
                    <mxGeometry width="180" height="180" as="geometry"/>
                </mxCell>
                <mxCell id="77" value="" style="shape=tableRow;horizontal=0;startSize=0;swimlaneHead=0;swimlaneBody=0;fillColor=none;collapsible=0;dropTarget=0;points=[[0,0.5],[1,0.5]];portConstraint=eastwest;top=0;left=0;right=0;bottom=1;fontFamily=Tenorite;fontSource=https%3A%2F%2Ffonts.cdnfonts.com%2Fcss%2Ftenorite%3Fstyles%3D102681%2C102679%2C102680%2C102678;fontStyle=0" parent="76" vertex="1">
                    <mxGeometry y="30" width="180" height="30" as="geometry"/>
                </mxCell>
                <mxCell id="78" value="PK" style="shape=partialRectangle;connectable=0;fillColor=none;top=0;left=0;bottom=0;right=0;fontStyle=0;overflow=hidden;fontFamily=Tenorite;fontSource=https%3A%2F%2Ffonts.cdnfonts.com%2Fcss%2Ftenorite%3Fstyles%3D102681%2C102679%2C102680%2C102678;" parent="77" vertex="1">
                    <mxGeometry width="30" height="30" as="geometry">
                        <mxRectangle width="30" height="30" as="alternateBounds"/>
                    </mxGeometry>
                </mxCell>
                <mxCell id="79" value="id" style="shape=partialRectangle;connectable=0;fillColor=none;top=0;left=0;bottom=0;right=0;align=left;spacingLeft=6;fontStyle=4;overflow=hidden;fontFamily=Tenorite;fontSource=https%3A%2F%2Ffonts.cdnfonts.com%2Fcss%2Ftenorite%3Fstyles%3D102681%2C102679%2C102680%2C102678;" parent="77" vertex="1">
                    <mxGeometry x="30" width="150" height="30" as="geometry">
                        <mxRectangle width="150" height="30" as="alternateBounds"/>
                    </mxGeometry>
                </mxCell>
                <mxCell id="80" value="" style="shape=tableRow;horizontal=0;startSize=0;swimlaneHead=0;swimlaneBody=0;fillColor=none;collapsible=0;dropTarget=0;points=[[0,0.5],[1,0.5]];portConstraint=eastwest;top=0;left=0;right=0;bottom=0;fontFamily=Tenorite;fontSource=https%3A%2F%2Ffonts.cdnfonts.com%2Fcss%2Ftenorite%3Fstyles%3D102681%2C102679%2C102680%2C102678;fontStyle=0" parent="76" vertex="1">
                    <mxGeometry y="60" width="180" height="30" as="geometry"/>
                </mxCell>
                <mxCell id="81" value="" style="shape=partialRectangle;connectable=0;fillColor=none;top=0;left=0;bottom=0;right=0;editable=1;overflow=hidden;fontFamily=Tenorite;fontSource=https%3A%2F%2Ffonts.cdnfonts.com%2Fcss%2Ftenorite%3Fstyles%3D102681%2C102679%2C102680%2C102678;fontStyle=0" parent="80" vertex="1">
                    <mxGeometry width="30" height="30" as="geometry">
                        <mxRectangle width="30" height="30" as="alternateBounds"/>
                    </mxGeometry>
                </mxCell>
                <mxCell id="82" value="application_type_id" style="shape=partialRectangle;connectable=0;fillColor=none;top=1;left=0;bottom=1;right=1;align=left;spacingLeft=6;overflow=hidden;fontFamily=Tenorite;fontSource=https%3A%2F%2Ffonts.cdnfonts.com%2Fcss%2Ftenorite%3Fstyles%3D102681%2C102679%2C102680%2C102678;fontStyle=0" parent="80" vertex="1">
                    <mxGeometry x="30" width="150" height="30" as="geometry">
                        <mxRectangle width="150" height="30" as="alternateBounds"/>
                    </mxGeometry>
                </mxCell>
                <mxCell id="83" value="" style="shape=tableRow;horizontal=0;startSize=0;swimlaneHead=0;swimlaneBody=0;fillColor=none;collapsible=0;dropTarget=0;points=[[0,0.5],[1,0.5]];portConstraint=eastwest;top=0;left=0;right=0;bottom=0;fontFamily=Tenorite;fontSource=https%3A%2F%2Ffonts.cdnfonts.com%2Fcss%2Ftenorite%3Fstyles%3D102681%2C102679%2C102680%2C102678;fontStyle=0" parent="76" vertex="1">
                    <mxGeometry y="90" width="180" height="30" as="geometry"/>
                </mxCell>
                <mxCell id="84" value="" style="shape=partialRectangle;connectable=0;fillColor=none;top=0;left=0;bottom=0;right=0;editable=1;overflow=hidden;fontFamily=Tenorite;fontSource=https%3A%2F%2Ffonts.cdnfonts.com%2Fcss%2Ftenorite%3Fstyles%3D102681%2C102679%2C102680%2C102678;fontStyle=0" parent="83" vertex="1">
                    <mxGeometry width="30" height="30" as="geometry">
                        <mxRectangle width="30" height="30" as="alternateBounds"/>
                    </mxGeometry>
                </mxCell>
                <mxCell id="85" value="user_id" style="shape=partialRectangle;connectable=0;fillColor=none;top=1;left=0;bottom=1;right=1;align=left;spacingLeft=6;overflow=hidden;fontFamily=Tenorite;fontSource=https%3A%2F%2Ffonts.cdnfonts.com%2Fcss%2Ftenorite%3Fstyles%3D102681%2C102679%2C102680%2C102678;fontStyle=0" parent="83" vertex="1">
                    <mxGeometry x="30" width="150" height="30" as="geometry">
                        <mxRectangle width="150" height="30" as="alternateBounds"/>
                    </mxGeometry>
                </mxCell>
                <mxCell id="86" value="" style="shape=tableRow;horizontal=0;startSize=0;swimlaneHead=0;swimlaneBody=0;fillColor=none;collapsible=0;dropTarget=0;points=[[0,0.5],[1,0.5]];portConstraint=eastwest;top=0;left=0;right=0;bottom=0;fontFamily=Tenorite;fontSource=https%3A%2F%2Ffonts.cdnfonts.com%2Fcss%2Ftenorite%3Fstyles%3D102681%2C102679%2C102680%2C102678;fontStyle=0" parent="76" vertex="1">
                    <mxGeometry y="120" width="180" height="30" as="geometry"/>
                </mxCell>
                <mxCell id="87" value="" style="shape=partialRectangle;connectable=0;fillColor=none;top=0;left=0;bottom=0;right=0;editable=1;overflow=hidden;fontFamily=Tenorite;fontSource=https%3A%2F%2Ffonts.cdnfonts.com%2Fcss%2Ftenorite%3Fstyles%3D102681%2C102679%2C102680%2C102678;fontStyle=0" parent="86" vertex="1">
                    <mxGeometry width="30" height="30" as="geometry">
                        <mxRectangle width="30" height="30" as="alternateBounds"/>
                    </mxGeometry>
                </mxCell>
                <mxCell id="88" value="approver_id" style="shape=partialRectangle;connectable=0;fillColor=none;top=1;left=0;bottom=1;right=1;align=left;spacingLeft=6;overflow=hidden;fontFamily=Tenorite;fontSource=https%3A%2F%2Ffonts.cdnfonts.com%2Fcss%2Ftenorite%3Fstyles%3D102681%2C102679%2C102680%2C102678;fontStyle=0" parent="86" vertex="1">
                    <mxGeometry x="30" width="150" height="30" as="geometry">
                        <mxRectangle width="150" height="30" as="alternateBounds"/>
                    </mxGeometry>
                </mxCell>
                <mxCell id="95" value="" style="shape=partialRectangle;connectable=0;fillColor=none;top=0;left=0;bottom=0;right=0;editable=1;overflow=hidden;fontFamily=Tenorite;fontSource=https%3A%2F%2Ffonts.cdnfonts.com%2Fcss%2Ftenorite%3Fstyles%3D102681%2C102679%2C102680%2C102678;fontStyle=0" parent="96" vertex="1">
                    <mxGeometry y="160" width="30" height="20" as="geometry">
                        <mxRectangle width="30" height="30" as="alternateBounds"/>
                    </mxGeometry>
                </mxCell>
                <mxCell id="98" value="FK" style="shape=partialRectangle;connectable=0;fillColor=none;top=1;left=1;bottom=1;right=1;fontStyle=0;overflow=hidden;fontFamily=Tenorite;fontSource=https%3A%2F%2Ffonts.cdnfonts.com%2Fcss%2Ftenorite%3Fstyles%3D102681%2C102679%2C102680%2C102678;" parent="96" vertex="1">
                    <mxGeometry y="90" width="30" height="30" as="geometry">
                        <mxRectangle width="30" height="30" as="alternateBounds"/>
                    </mxGeometry>
                </mxCell>
                <mxCell id="221" value="FK" style="shape=partialRectangle;connectable=0;fillColor=none;top=1;left=1;bottom=1;right=1;fontStyle=0;overflow=hidden;fontFamily=Tenorite;fontSource=https%3A%2F%2Ffonts.cdnfonts.com%2Fcss%2Ftenorite%3Fstyles%3D102681%2C102679%2C102680%2C102678;" parent="96" vertex="1">
                    <mxGeometry y="120" width="30" height="30" as="geometry">
                        <mxRectangle width="30" height="30" as="alternateBounds"/>
                    </mxGeometry>
                </mxCell>
                <mxCell id="283" value="FK" style="shape=partialRectangle;connectable=0;fillColor=none;top=1;left=1;bottom=1;right=1;fontStyle=0;overflow=hidden;fontFamily=Tenorite;fontSource=https%3A%2F%2Ffonts.cdnfonts.com%2Fcss%2Ftenorite%3Fstyles%3D102681%2C102679%2C102680%2C102678;" parent="96" vertex="1">
                    <mxGeometry y="60" width="30" height="30" as="geometry">
                        <mxRectangle width="30" height="30" as="alternateBounds"/>
                    </mxGeometry>
                </mxCell>
                <mxCell id="285" value="" style="shape=tableRow;horizontal=0;startSize=0;swimlaneHead=0;swimlaneBody=0;fillColor=none;collapsible=0;dropTarget=0;points=[[0,0.5],[1,0.5]];portConstraint=eastwest;top=0;left=0;right=0;bottom=0;fontFamily=Tenorite;fontSource=https%3A%2F%2Ffonts.cdnfonts.com%2Fcss%2Ftenorite%3Fstyles%3D102681%2C102679%2C102680%2C102678;fontStyle=0" parent="96" vertex="1">
                    <mxGeometry y="150" width="180" height="30" as="geometry"/>
                </mxCell>
                <mxCell id="286" value="" style="shape=partialRectangle;connectable=0;fillColor=none;top=0;left=0;bottom=0;right=0;editable=1;overflow=hidden;fontFamily=Tenorite;fontSource=https%3A%2F%2Ffonts.cdnfonts.com%2Fcss%2Ftenorite%3Fstyles%3D102681%2C102679%2C102680%2C102678;fontStyle=0" parent="285" vertex="1">
                    <mxGeometry width="30" height="30" as="geometry">
                        <mxRectangle width="30" height="30" as="alternateBounds"/>
                    </mxGeometry>
                </mxCell>
                <mxCell id="287" value="status_id" style="shape=partialRectangle;connectable=0;fillColor=none;top=1;left=0;bottom=1;right=1;align=left;spacingLeft=6;overflow=hidden;fontFamily=Tenorite;fontSource=https%3A%2F%2Ffonts.cdnfonts.com%2Fcss%2Ftenorite%3Fstyles%3D102681%2C102679%2C102680%2C102678;fontStyle=0" parent="285" vertex="1">
                    <mxGeometry x="30" width="150" height="30" as="geometry">
                        <mxRectangle width="150" height="30" as="alternateBounds"/>
                    </mxGeometry>
                </mxCell>
                <mxCell id="288" value="FK" style="shape=partialRectangle;connectable=0;fillColor=none;top=1;left=1;bottom=1;right=1;fontStyle=0;overflow=hidden;fontFamily=Tenorite;fontSource=https%3A%2F%2Ffonts.cdnfonts.com%2Fcss%2Ftenorite%3Fstyles%3D102681%2C102679%2C102680%2C102678;" parent="96" vertex="1">
                    <mxGeometry y="150" width="30" height="30" as="geometry">
                        <mxRectangle width="30" height="30" as="alternateBounds"/>
                    </mxGeometry>
                </mxCell>
                <mxCell id="97" style="edgeStyle=orthogonalEdgeStyle;rounded=0;html=1;entryX=0;entryY=0.5;entryDx=0;entryDy=0;fontFamily=Tenorite;fontSource=https%3A%2F%2Ffonts.cdnfonts.com%2Fcss%2Ftenorite%3Fstyles%3D102681%2C102679%2C102680%2C102678;startArrow=ERmandOne;startFill=0;endArrow=ERoneToMany;endFill=0;" parent="1" source="3" target="83" edge="1">
                    <mxGeometry relative="1" as="geometry">
                        <Array as="points">
                            <mxPoint x="660" y="335"/>
                            <mxPoint x="660" y="625"/>
                        </Array>
                    </mxGeometry>
                </mxCell>
                <mxCell id="99" value="" style="group" parent="1" vertex="1" connectable="0">
                    <mxGeometry x="800" y="800" width="180" height="180" as="geometry"/>
                </mxCell>
                <mxCell id="100" value="Application_Type" style="shape=table;startSize=30;container=1;collapsible=1;childLayout=tableLayout;fixedRows=1;rowLines=0;fontStyle=0;align=center;resizeLast=1;fontFamily=Tenorite;fontSource=https%3A%2F%2Ffonts.cdnfonts.com%2Fcss%2Ftenorite%3Fstyles%3D102681%2C102679%2C102680%2C102678;" parent="99" vertex="1">
                    <mxGeometry width="180" height="180" as="geometry"/>
                </mxCell>
                <mxCell id="101" value="" style="shape=tableRow;horizontal=0;startSize=0;swimlaneHead=0;swimlaneBody=0;fillColor=none;collapsible=0;dropTarget=0;points=[[0,0.5],[1,0.5]];portConstraint=eastwest;top=0;left=0;right=0;bottom=1;fontFamily=Tenorite;fontSource=https%3A%2F%2Ffonts.cdnfonts.com%2Fcss%2Ftenorite%3Fstyles%3D102681%2C102679%2C102680%2C102678;fontStyle=0" parent="100" vertex="1">
                    <mxGeometry y="30" width="180" height="30" as="geometry"/>
                </mxCell>
                <mxCell id="102" value="PK" style="shape=partialRectangle;connectable=0;fillColor=none;top=0;left=0;bottom=0;right=0;fontStyle=0;overflow=hidden;fontFamily=Tenorite;fontSource=https%3A%2F%2Ffonts.cdnfonts.com%2Fcss%2Ftenorite%3Fstyles%3D102681%2C102679%2C102680%2C102678;" parent="101" vertex="1">
                    <mxGeometry width="30" height="30" as="geometry">
                        <mxRectangle width="30" height="30" as="alternateBounds"/>
                    </mxGeometry>
                </mxCell>
                <mxCell id="103" value="id" style="shape=partialRectangle;connectable=0;fillColor=none;top=0;left=0;bottom=0;right=0;align=left;spacingLeft=6;fontStyle=4;overflow=hidden;fontFamily=Tenorite;fontSource=https%3A%2F%2Ffonts.cdnfonts.com%2Fcss%2Ftenorite%3Fstyles%3D102681%2C102679%2C102680%2C102678;" parent="101" vertex="1">
                    <mxGeometry x="30" width="150" height="30" as="geometry">
                        <mxRectangle width="150" height="30" as="alternateBounds"/>
                    </mxGeometry>
                </mxCell>
                <mxCell id="104" value="" style="shape=tableRow;horizontal=0;startSize=0;swimlaneHead=0;swimlaneBody=0;fillColor=none;collapsible=0;dropTarget=0;points=[[0,0.5],[1,0.5]];portConstraint=eastwest;top=0;left=0;right=0;bottom=0;fontFamily=Tenorite;fontSource=https%3A%2F%2Ffonts.cdnfonts.com%2Fcss%2Ftenorite%3Fstyles%3D102681%2C102679%2C102680%2C102678;fontStyle=0" parent="100" vertex="1">
                    <mxGeometry y="60" width="180" height="30" as="geometry"/>
                </mxCell>
                <mxCell id="105" value="" style="shape=partialRectangle;connectable=0;fillColor=none;top=0;left=0;bottom=0;right=0;editable=1;overflow=hidden;fontFamily=Tenorite;fontSource=https%3A%2F%2Ffonts.cdnfonts.com%2Fcss%2Ftenorite%3Fstyles%3D102681%2C102679%2C102680%2C102678;fontStyle=0" parent="104" vertex="1">
                    <mxGeometry width="30" height="30" as="geometry">
                        <mxRectangle width="30" height="30" as="alternateBounds"/>
                    </mxGeometry>
                </mxCell>
                <mxCell id="106" value="application_code" style="shape=partialRectangle;connectable=0;fillColor=none;top=1;left=0;bottom=1;right=1;align=left;spacingLeft=6;overflow=hidden;fontFamily=Tenorite;fontSource=https%3A%2F%2Ffonts.cdnfonts.com%2Fcss%2Ftenorite%3Fstyles%3D102681%2C102679%2C102680%2C102678;fontStyle=0" parent="104" vertex="1">
                    <mxGeometry x="30" width="150" height="30" as="geometry">
                        <mxRectangle width="150" height="30" as="alternateBounds"/>
                    </mxGeometry>
                </mxCell>
                <mxCell id="107" value="" style="shape=tableRow;horizontal=0;startSize=0;swimlaneHead=0;swimlaneBody=0;fillColor=none;collapsible=0;dropTarget=0;points=[[0,0.5],[1,0.5]];portConstraint=eastwest;top=0;left=0;right=0;bottom=0;fontFamily=Tenorite;fontSource=https%3A%2F%2Ffonts.cdnfonts.com%2Fcss%2Ftenorite%3Fstyles%3D102681%2C102679%2C102680%2C102678;fontStyle=0" parent="100" vertex="1">
                    <mxGeometry y="90" width="180" height="30" as="geometry"/>
                </mxCell>
                <mxCell id="108" value="" style="shape=partialRectangle;connectable=0;fillColor=none;top=0;left=0;bottom=0;right=0;editable=1;overflow=hidden;fontFamily=Tenorite;fontSource=https%3A%2F%2Ffonts.cdnfonts.com%2Fcss%2Ftenorite%3Fstyles%3D102681%2C102679%2C102680%2C102678;fontStyle=0" parent="107" vertex="1">
                    <mxGeometry width="30" height="30" as="geometry">
                        <mxRectangle width="30" height="30" as="alternateBounds"/>
                    </mxGeometry>
                </mxCell>
                <mxCell id="109" value="application_name" style="shape=partialRectangle;connectable=0;fillColor=none;top=1;left=0;bottom=1;right=1;align=left;spacingLeft=6;overflow=hidden;fontFamily=Tenorite;fontSource=https%3A%2F%2Ffonts.cdnfonts.com%2Fcss%2Ftenorite%3Fstyles%3D102681%2C102679%2C102680%2C102678;fontStyle=0" parent="107" vertex="1">
                    <mxGeometry x="30" width="150" height="30" as="geometry">
                        <mxRectangle width="150" height="30" as="alternateBounds"/>
                    </mxGeometry>
                </mxCell>
                <mxCell id="110" value="" style="shape=tableRow;horizontal=0;startSize=0;swimlaneHead=0;swimlaneBody=0;fillColor=none;collapsible=0;dropTarget=0;points=[[0,0.5],[1,0.5]];portConstraint=eastwest;top=0;left=0;right=0;bottom=0;fontFamily=Tenorite;fontSource=https%3A%2F%2Ffonts.cdnfonts.com%2Fcss%2Ftenorite%3Fstyles%3D102681%2C102679%2C102680%2C102678;fontStyle=0" parent="100" vertex="1">
                    <mxGeometry y="120" width="180" height="30" as="geometry"/>
                </mxCell>
                <mxCell id="111" value="" style="shape=partialRectangle;connectable=0;fillColor=none;top=0;left=0;bottom=0;right=0;editable=1;overflow=hidden;fontFamily=Tenorite;fontSource=https%3A%2F%2Ffonts.cdnfonts.com%2Fcss%2Ftenorite%3Fstyles%3D102681%2C102679%2C102680%2C102678;fontStyle=0" parent="110" vertex="1">
                    <mxGeometry width="30" height="30" as="geometry">
                        <mxRectangle width="30" height="30" as="alternateBounds"/>
                    </mxGeometry>
                </mxCell>
                <mxCell id="112" value="description" style="shape=partialRectangle;connectable=0;fillColor=none;top=1;left=0;bottom=1;right=1;align=left;spacingLeft=6;overflow=hidden;fontFamily=Tenorite;fontSource=https%3A%2F%2Ffonts.cdnfonts.com%2Fcss%2Ftenorite%3Fstyles%3D102681%2C102679%2C102680%2C102678;fontStyle=0" parent="110" vertex="1">
                    <mxGeometry x="30" width="150" height="30" as="geometry">
                        <mxRectangle width="150" height="30" as="alternateBounds"/>
                    </mxGeometry>
                </mxCell>
                <mxCell id="113" value="" style="shape=partialRectangle;connectable=0;fillColor=none;top=0;left=0;bottom=0;right=0;editable=1;overflow=hidden;fontFamily=Tenorite;fontSource=https%3A%2F%2Ffonts.cdnfonts.com%2Fcss%2Ftenorite%3Fstyles%3D102681%2C102679%2C102680%2C102678;fontStyle=0" parent="99" vertex="1">
                    <mxGeometry y="133.33333333333334" width="30" height="16.666666666666668" as="geometry">
                        <mxRectangle width="30" height="30" as="alternateBounds"/>
                    </mxGeometry>
                </mxCell>
                <mxCell id="115" value="status_id" style="shape=partialRectangle;connectable=0;fillColor=none;top=1;left=1;bottom=1;right=1;align=left;spacingLeft=6;overflow=hidden;fontFamily=Tenorite;fontSource=https%3A%2F%2Ffonts.cdnfonts.com%2Fcss%2Ftenorite%3Fstyles%3D102681%2C102679%2C102680%2C102678;fontStyle=0" parent="99" vertex="1">
                    <mxGeometry x="30" y="150" width="150" height="30" as="geometry">
                        <mxRectangle width="150" height="30" as="alternateBounds"/>
                    </mxGeometry>
                </mxCell>
                <mxCell id="116" style="edgeStyle=orthogonalEdgeStyle;rounded=0;html=1;entryX=1;entryY=0.5;entryDx=0;entryDy=0;fontFamily=Tenorite;fontSource=https%3A%2F%2Ffonts.cdnfonts.com%2Fcss%2Ftenorite%3Fstyles%3D102681%2C102679%2C102680%2C102678;startArrow=ERmandOne;startFill=0;endArrow=ERoneToMany;endFill=0;exitX=1;exitY=0.5;exitDx=0;exitDy=0;" parent="1" source="101" target="80" edge="1">
                    <mxGeometry relative="1" as="geometry">
                        <Array as="points">
                            <mxPoint x="1080" y="845"/>
                            <mxPoint x="1080" y="595"/>
                        </Array>
                    </mxGeometry>
                </mxCell>
                <mxCell id="117" value="" style="group" parent="1" vertex="1" connectable="0">
                    <mxGeometry x="380" y="680" width="180" height="180" as="geometry"/>
                </mxCell>
                <mxCell id="118" value="Status" style="shape=table;startSize=30;container=1;collapsible=1;childLayout=tableLayout;fixedRows=1;rowLines=0;fontStyle=0;align=center;resizeLast=1;fontFamily=Tenorite;fontSource=https%3A%2F%2Ffonts.cdnfonts.com%2Fcss%2Ftenorite%3Fstyles%3D102681%2C102679%2C102680%2C102678;" parent="117" vertex="1">
                    <mxGeometry width="180" height="150" as="geometry"/>
                </mxCell>
                <mxCell id="119" value="" style="shape=tableRow;horizontal=0;startSize=0;swimlaneHead=0;swimlaneBody=0;fillColor=none;collapsible=0;dropTarget=0;points=[[0,0.5],[1,0.5]];portConstraint=eastwest;top=0;left=0;right=0;bottom=1;fontFamily=Tenorite;fontSource=https%3A%2F%2Ffonts.cdnfonts.com%2Fcss%2Ftenorite%3Fstyles%3D102681%2C102679%2C102680%2C102678;fontStyle=0" parent="118" vertex="1">
                    <mxGeometry y="30" width="180" height="30" as="geometry"/>
                </mxCell>
                <mxCell id="120" value="PK" style="shape=partialRectangle;connectable=0;fillColor=none;top=0;left=0;bottom=0;right=0;fontStyle=0;overflow=hidden;fontFamily=Tenorite;fontSource=https%3A%2F%2Ffonts.cdnfonts.com%2Fcss%2Ftenorite%3Fstyles%3D102681%2C102679%2C102680%2C102678;" parent="119" vertex="1">
                    <mxGeometry width="30" height="30" as="geometry">
                        <mxRectangle width="30" height="30" as="alternateBounds"/>
                    </mxGeometry>
                </mxCell>
                <mxCell id="121" value="id" style="shape=partialRectangle;connectable=0;fillColor=none;top=0;left=0;bottom=0;right=0;align=left;spacingLeft=6;fontStyle=4;overflow=hidden;fontFamily=Tenorite;fontSource=https%3A%2F%2Ffonts.cdnfonts.com%2Fcss%2Ftenorite%3Fstyles%3D102681%2C102679%2C102680%2C102678;" parent="119" vertex="1">
                    <mxGeometry x="30" width="150" height="30" as="geometry">
                        <mxRectangle width="150" height="30" as="alternateBounds"/>
                    </mxGeometry>
                </mxCell>
                <mxCell id="122" value="" style="shape=tableRow;horizontal=0;startSize=0;swimlaneHead=0;swimlaneBody=0;fillColor=none;collapsible=0;dropTarget=0;points=[[0,0.5],[1,0.5]];portConstraint=eastwest;top=0;left=0;right=0;bottom=0;fontFamily=Tenorite;fontSource=https%3A%2F%2Ffonts.cdnfonts.com%2Fcss%2Ftenorite%3Fstyles%3D102681%2C102679%2C102680%2C102678;fontStyle=0" parent="118" vertex="1">
                    <mxGeometry y="60" width="180" height="30" as="geometry"/>
                </mxCell>
                <mxCell id="123" value="" style="shape=partialRectangle;connectable=0;fillColor=none;top=0;left=0;bottom=0;right=0;editable=1;overflow=hidden;fontFamily=Tenorite;fontSource=https%3A%2F%2Ffonts.cdnfonts.com%2Fcss%2Ftenorite%3Fstyles%3D102681%2C102679%2C102680%2C102678;fontStyle=0" parent="122" vertex="1">
                    <mxGeometry width="30" height="30" as="geometry">
                        <mxRectangle width="30" height="30" as="alternateBounds"/>
                    </mxGeometry>
                </mxCell>
                <mxCell id="124" value="status_category_id" style="shape=partialRectangle;connectable=0;fillColor=none;top=1;left=0;bottom=1;right=1;align=left;spacingLeft=6;overflow=hidden;fontFamily=Tenorite;fontSource=https%3A%2F%2Ffonts.cdnfonts.com%2Fcss%2Ftenorite%3Fstyles%3D102681%2C102679%2C102680%2C102678;fontStyle=0" parent="122" vertex="1">
                    <mxGeometry x="30" width="150" height="30" as="geometry">
                        <mxRectangle width="150" height="30" as="alternateBounds"/>
                    </mxGeometry>
                </mxCell>
                <mxCell id="125" value="" style="shape=tableRow;horizontal=0;startSize=0;swimlaneHead=0;swimlaneBody=0;fillColor=none;collapsible=0;dropTarget=0;points=[[0,0.5],[1,0.5]];portConstraint=eastwest;top=0;left=0;right=0;bottom=0;fontFamily=Tenorite;fontSource=https%3A%2F%2Ffonts.cdnfonts.com%2Fcss%2Ftenorite%3Fstyles%3D102681%2C102679%2C102680%2C102678;fontStyle=0" parent="118" vertex="1">
                    <mxGeometry y="90" width="180" height="30" as="geometry"/>
                </mxCell>
                <mxCell id="126" value="" style="shape=partialRectangle;connectable=0;fillColor=none;top=0;left=0;bottom=0;right=0;editable=1;overflow=hidden;fontFamily=Tenorite;fontSource=https%3A%2F%2Ffonts.cdnfonts.com%2Fcss%2Ftenorite%3Fstyles%3D102681%2C102679%2C102680%2C102678;fontStyle=0" parent="125" vertex="1">
                    <mxGeometry width="30" height="30" as="geometry">
                        <mxRectangle width="30" height="30" as="alternateBounds"/>
                    </mxGeometry>
                </mxCell>
                <mxCell id="127" value="" style="shape=partialRectangle;connectable=0;fillColor=none;top=1;left=0;bottom=1;right=1;align=left;spacingLeft=6;overflow=hidden;fontFamily=Tenorite;fontSource=https%3A%2F%2Ffonts.cdnfonts.com%2Fcss%2Ftenorite%3Fstyles%3D102681%2C102679%2C102680%2C102678;fontStyle=0" parent="125" vertex="1">
                    <mxGeometry x="30" width="150" height="30" as="geometry">
                        <mxRectangle width="150" height="30" as="alternateBounds"/>
                    </mxGeometry>
                </mxCell>
                <mxCell id="128" value="" style="shape=tableRow;horizontal=0;startSize=0;swimlaneHead=0;swimlaneBody=0;fillColor=none;collapsible=0;dropTarget=0;points=[[0,0.5],[1,0.5]];portConstraint=eastwest;top=0;left=0;right=0;bottom=0;fontFamily=Tenorite;fontSource=https%3A%2F%2Ffonts.cdnfonts.com%2Fcss%2Ftenorite%3Fstyles%3D102681%2C102679%2C102680%2C102678;fontStyle=0" parent="118" vertex="1">
                    <mxGeometry y="120" width="180" height="30" as="geometry"/>
                </mxCell>
                <mxCell id="129" value="" style="shape=partialRectangle;connectable=0;fillColor=none;top=0;left=0;bottom=0;right=0;editable=1;overflow=hidden;fontFamily=Tenorite;fontSource=https%3A%2F%2Ffonts.cdnfonts.com%2Fcss%2Ftenorite%3Fstyles%3D102681%2C102679%2C102680%2C102678;fontStyle=0" parent="128" vertex="1">
                    <mxGeometry width="30" height="30" as="geometry">
                        <mxRectangle width="30" height="30" as="alternateBounds"/>
                    </mxGeometry>
                </mxCell>
                <mxCell id="130" value="status_description" style="shape=partialRectangle;connectable=0;fillColor=none;top=1;left=0;bottom=1;right=1;align=left;spacingLeft=6;overflow=hidden;fontFamily=Tenorite;fontSource=https%3A%2F%2Ffonts.cdnfonts.com%2Fcss%2Ftenorite%3Fstyles%3D102681%2C102679%2C102680%2C102678;fontStyle=0" parent="128" vertex="1">
                    <mxGeometry x="30" width="150" height="30" as="geometry">
                        <mxRectangle width="150" height="30" as="alternateBounds"/>
                    </mxGeometry>
                </mxCell>
                <mxCell id="131" value="" style="shape=partialRectangle;connectable=0;fillColor=none;top=0;left=0;bottom=0;right=0;editable=1;overflow=hidden;fontFamily=Tenorite;fontSource=https%3A%2F%2Ffonts.cdnfonts.com%2Fcss%2Ftenorite%3Fstyles%3D102681%2C102679%2C102680%2C102678;fontStyle=0" parent="117" vertex="1">
                    <mxGeometry y="133.33333333333334" width="30" height="16.666666666666668" as="geometry">
                        <mxRectangle width="30" height="30" as="alternateBounds"/>
                    </mxGeometry>
                </mxCell>
                <mxCell id="163" value="" style="shape=partialRectangle;connectable=0;fillColor=none;top=0;left=0;bottom=0;right=0;editable=1;overflow=hidden;fontFamily=Tenorite;fontSource=https%3A%2F%2Ffonts.cdnfonts.com%2Fcss%2Ftenorite%3Fstyles%3D102681%2C102679%2C102680%2C102678;fontStyle=0" parent="117" vertex="1">
                    <mxGeometry y="90" width="30" height="30" as="geometry">
                        <mxRectangle width="30" height="30" as="alternateBounds"/>
                    </mxGeometry>
                </mxCell>
                <mxCell id="164" value="status_code" style="shape=partialRectangle;connectable=0;fillColor=none;top=1;left=0;bottom=1;right=1;align=left;spacingLeft=6;overflow=hidden;fontFamily=Tenorite;fontSource=https%3A%2F%2Ffonts.cdnfonts.com%2Fcss%2Ftenorite%3Fstyles%3D102681%2C102679%2C102680%2C102678;fontStyle=0" parent="117" vertex="1">
                    <mxGeometry x="30" y="90" width="150" height="30" as="geometry">
                        <mxRectangle width="150" height="30" as="alternateBounds"/>
                    </mxGeometry>
                </mxCell>
                <mxCell id="140" value="" style="shape=tableRow;horizontal=0;startSize=0;swimlaneHead=0;swimlaneBody=0;fillColor=none;collapsible=0;dropTarget=0;points=[[0,0.5],[1,0.5]];portConstraint=eastwest;top=0;left=0;right=0;bottom=0;fontFamily=Tenorite;fontSource=https%3A%2F%2Ffonts.cdnfonts.com%2Fcss%2Ftenorite%3Fstyles%3D102681%2C102679%2C102680%2C102678;fontStyle=0" parent="1" vertex="1">
                    <mxGeometry x="390" y="500" width="180" height="30" as="geometry"/>
                </mxCell>
                <mxCell id="141" value="FK" style="shape=partialRectangle;connectable=0;fillColor=none;top=1;left=1;bottom=1;right=1;editable=1;overflow=hidden;fontFamily=Tenorite;fontSource=https%3A%2F%2Ffonts.cdnfonts.com%2Fcss%2Ftenorite%3Fstyles%3D102681%2C102679%2C102680%2C102678;fontStyle=0" parent="140" vertex="1">
                    <mxGeometry width="30" height="30" as="geometry">
                        <mxRectangle width="30" height="30" as="alternateBounds"/>
                    </mxGeometry>
                </mxCell>
                <mxCell id="142" value="status_id" style="shape=partialRectangle;connectable=0;fillColor=none;top=1;left=1;bottom=1;right=1;align=left;spacingLeft=6;overflow=hidden;fontFamily=Tenorite;fontSource=https%3A%2F%2Ffonts.cdnfonts.com%2Fcss%2Ftenorite%3Fstyles%3D102681%2C102679%2C102680%2C102678;fontStyle=0" parent="140" vertex="1">
                    <mxGeometry x="30" width="150" height="30" as="geometry">
                        <mxRectangle width="150" height="30" as="alternateBounds"/>
                    </mxGeometry>
                </mxCell>
                <mxCell id="143" style="edgeStyle=orthogonalEdgeStyle;rounded=0;html=1;entryX=0;entryY=0.5;entryDx=0;entryDy=0;fontFamily=Tenorite;fontSource=https%3A%2F%2Ffonts.cdnfonts.com%2Fcss%2Ftenorite%3Fstyles%3D102681%2C102679%2C102680%2C102678;startArrow=ERmandOne;startFill=0;endArrow=ERoneToMany;endFill=0;exitX=0;exitY=0.5;exitDx=0;exitDy=0;" parent="1" source="119" target="140" edge="1">
                    <mxGeometry relative="1" as="geometry">
                        <Array as="points">
                            <mxPoint x="340" y="725"/>
                            <mxPoint x="340" y="515"/>
                        </Array>
                    </mxGeometry>
                </mxCell>
                <mxCell id="144" value="" style="group" parent="1" vertex="1" connectable="0">
                    <mxGeometry x="370" y="910" width="180" height="150" as="geometry"/>
                </mxCell>
                <mxCell id="145" value="Status_Categories" style="shape=table;startSize=30;container=1;collapsible=1;childLayout=tableLayout;fixedRows=1;rowLines=0;fontStyle=0;align=center;resizeLast=1;fontFamily=Tenorite;fontSource=https%3A%2F%2Ffonts.cdnfonts.com%2Fcss%2Ftenorite%3Fstyles%3D102681%2C102679%2C102680%2C102678;" parent="144" vertex="1">
                    <mxGeometry width="180" height="120" as="geometry"/>
                </mxCell>
                <mxCell id="146" value="" style="shape=tableRow;horizontal=0;startSize=0;swimlaneHead=0;swimlaneBody=0;fillColor=none;collapsible=0;dropTarget=0;points=[[0,0.5],[1,0.5]];portConstraint=eastwest;top=0;left=0;right=0;bottom=1;fontFamily=Tenorite;fontSource=https%3A%2F%2Ffonts.cdnfonts.com%2Fcss%2Ftenorite%3Fstyles%3D102681%2C102679%2C102680%2C102678;fontStyle=0" parent="145" vertex="1">
                    <mxGeometry y="30" width="180" height="30" as="geometry"/>
                </mxCell>
                <mxCell id="147" value="PK" style="shape=partialRectangle;connectable=0;fillColor=none;top=0;left=0;bottom=0;right=0;fontStyle=0;overflow=hidden;fontFamily=Tenorite;fontSource=https%3A%2F%2Ffonts.cdnfonts.com%2Fcss%2Ftenorite%3Fstyles%3D102681%2C102679%2C102680%2C102678;" parent="146" vertex="1">
                    <mxGeometry width="30" height="30" as="geometry">
                        <mxRectangle width="30" height="30" as="alternateBounds"/>
                    </mxGeometry>
                </mxCell>
                <mxCell id="148" value="id" style="shape=partialRectangle;connectable=0;fillColor=none;top=0;left=0;bottom=0;right=0;align=left;spacingLeft=6;fontStyle=4;overflow=hidden;fontFamily=Tenorite;fontSource=https%3A%2F%2Ffonts.cdnfonts.com%2Fcss%2Ftenorite%3Fstyles%3D102681%2C102679%2C102680%2C102678;" parent="146" vertex="1">
                    <mxGeometry x="30" width="150" height="30" as="geometry">
                        <mxRectangle width="150" height="30" as="alternateBounds"/>
                    </mxGeometry>
                </mxCell>
                <mxCell id="149" value="" style="shape=tableRow;horizontal=0;startSize=0;swimlaneHead=0;swimlaneBody=0;fillColor=none;collapsible=0;dropTarget=0;points=[[0,0.5],[1,0.5]];portConstraint=eastwest;top=0;left=0;right=0;bottom=0;fontFamily=Tenorite;fontSource=https%3A%2F%2Ffonts.cdnfonts.com%2Fcss%2Ftenorite%3Fstyles%3D102681%2C102679%2C102680%2C102678;fontStyle=0" parent="145" vertex="1">
                    <mxGeometry y="60" width="180" height="30" as="geometry"/>
                </mxCell>
                <mxCell id="150" value="" style="shape=partialRectangle;connectable=0;fillColor=none;top=0;left=0;bottom=0;right=0;editable=1;overflow=hidden;fontFamily=Tenorite;fontSource=https%3A%2F%2Ffonts.cdnfonts.com%2Fcss%2Ftenorite%3Fstyles%3D102681%2C102679%2C102680%2C102678;fontStyle=0" parent="149" vertex="1">
                    <mxGeometry width="30" height="30" as="geometry">
                        <mxRectangle width="30" height="30" as="alternateBounds"/>
                    </mxGeometry>
                </mxCell>
                <mxCell id="151" value="category_code" style="shape=partialRectangle;connectable=0;fillColor=none;top=1;left=0;bottom=1;right=1;align=left;spacingLeft=6;overflow=hidden;fontFamily=Tenorite;fontSource=https%3A%2F%2Ffonts.cdnfonts.com%2Fcss%2Ftenorite%3Fstyles%3D102681%2C102679%2C102680%2C102678;fontStyle=0" parent="149" vertex="1">
                    <mxGeometry x="30" width="150" height="30" as="geometry">
                        <mxRectangle width="150" height="30" as="alternateBounds"/>
                    </mxGeometry>
                </mxCell>
                <mxCell id="152" value="" style="shape=tableRow;horizontal=0;startSize=0;swimlaneHead=0;swimlaneBody=0;fillColor=none;collapsible=0;dropTarget=0;points=[[0,0.5],[1,0.5]];portConstraint=eastwest;top=0;left=0;right=0;bottom=0;fontFamily=Tenorite;fontSource=https%3A%2F%2Ffonts.cdnfonts.com%2Fcss%2Ftenorite%3Fstyles%3D102681%2C102679%2C102680%2C102678;fontStyle=0" parent="145" vertex="1">
                    <mxGeometry y="90" width="180" height="30" as="geometry"/>
                </mxCell>
                <mxCell id="153" value="" style="shape=partialRectangle;connectable=0;fillColor=none;top=0;left=0;bottom=0;right=0;editable=1;overflow=hidden;fontFamily=Tenorite;fontSource=https%3A%2F%2Ffonts.cdnfonts.com%2Fcss%2Ftenorite%3Fstyles%3D102681%2C102679%2C102680%2C102678;fontStyle=0" parent="152" vertex="1">
                    <mxGeometry width="30" height="30" as="geometry">
                        <mxRectangle width="30" height="30" as="alternateBounds"/>
                    </mxGeometry>
                </mxCell>
                <mxCell id="154" value="description" style="shape=partialRectangle;connectable=0;fillColor=none;top=1;left=0;bottom=1;right=1;align=left;spacingLeft=6;overflow=hidden;fontFamily=Tenorite;fontSource=https%3A%2F%2Ffonts.cdnfonts.com%2Fcss%2Ftenorite%3Fstyles%3D102681%2C102679%2C102680%2C102678;fontStyle=0" parent="152" vertex="1">
                    <mxGeometry x="30" width="150" height="30" as="geometry">
                        <mxRectangle width="150" height="30" as="alternateBounds"/>
                    </mxGeometry>
                </mxCell>
                <mxCell id="158" value="" style="shape=partialRectangle;connectable=0;fillColor=none;top=0;left=0;bottom=0;right=0;editable=1;overflow=hidden;fontFamily=Tenorite;fontSource=https%3A%2F%2Ffonts.cdnfonts.com%2Fcss%2Ftenorite%3Fstyles%3D102681%2C102679%2C102680%2C102678;fontStyle=0" parent="144" vertex="1">
                    <mxGeometry y="111.11111111111113" width="30" height="13.888888888888891" as="geometry">
                        <mxRectangle width="30" height="30" as="alternateBounds"/>
                    </mxGeometry>
                </mxCell>
                <mxCell id="160" style="edgeStyle=orthogonalEdgeStyle;rounded=0;html=1;fontFamily=Tenorite;fontSource=https%3A%2F%2Ffonts.cdnfonts.com%2Fcss%2Ftenorite%3Fstyles%3D102681%2C102679%2C102680%2C102678;startArrow=ERmandOne;startFill=0;endArrow=ERoneToMany;endFill=0;entryX=-0.002;entryY=0.594;entryDx=0;entryDy=0;entryPerimeter=0;" parent="1" source="146" target="122" edge="1">
                    <mxGeometry relative="1" as="geometry">
                        <mxPoint x="339.9999999999999" y="820" as="targetPoint"/>
                        <Array as="points">
                            <mxPoint x="570" y="955"/>
                            <mxPoint x="570" y="855"/>
                            <mxPoint x="340" y="855"/>
                            <mxPoint x="340" y="758"/>
                        </Array>
                    </mxGeometry>
                </mxCell>
                <mxCell id="165" value="" style="group" parent="1" vertex="1" connectable="0">
                    <mxGeometry x="1160" y="700" width="180" height="190" as="geometry"/>
                </mxCell>
                <mxCell id="166" value="Request_Tracking" style="shape=table;startSize=30;container=1;collapsible=1;childLayout=tableLayout;fixedRows=1;rowLines=0;fontStyle=0;align=center;resizeLast=1;fontFamily=Tenorite;fontSource=https%3A%2F%2Ffonts.cdnfonts.com%2Fcss%2Ftenorite%3Fstyles%3D102681%2C102679%2C102680%2C102678;" parent="165" vertex="1">
                    <mxGeometry width="180" height="180" as="geometry"/>
                </mxCell>
                <mxCell id="167" value="" style="shape=tableRow;horizontal=0;startSize=0;swimlaneHead=0;swimlaneBody=0;fillColor=none;collapsible=0;dropTarget=0;points=[[0,0.5],[1,0.5]];portConstraint=eastwest;top=0;left=0;right=0;bottom=1;fontFamily=Tenorite;fontSource=https%3A%2F%2Ffonts.cdnfonts.com%2Fcss%2Ftenorite%3Fstyles%3D102681%2C102679%2C102680%2C102678;fontStyle=0" parent="166" vertex="1">
                    <mxGeometry y="30" width="180" height="30" as="geometry"/>
                </mxCell>
                <mxCell id="168" value="PK" style="shape=partialRectangle;connectable=0;fillColor=none;top=0;left=0;bottom=0;right=0;fontStyle=0;overflow=hidden;fontFamily=Tenorite;fontSource=https%3A%2F%2Ffonts.cdnfonts.com%2Fcss%2Ftenorite%3Fstyles%3D102681%2C102679%2C102680%2C102678;" parent="167" vertex="1">
                    <mxGeometry width="30" height="30" as="geometry">
                        <mxRectangle width="30" height="30" as="alternateBounds"/>
                    </mxGeometry>
                </mxCell>
                <mxCell id="169" value="id" style="shape=partialRectangle;connectable=0;fillColor=none;top=0;left=0;bottom=0;right=0;align=left;spacingLeft=6;fontStyle=4;overflow=hidden;fontFamily=Tenorite;fontSource=https%3A%2F%2Ffonts.cdnfonts.com%2Fcss%2Ftenorite%3Fstyles%3D102681%2C102679%2C102680%2C102678;" parent="167" vertex="1">
                    <mxGeometry x="30" width="150" height="30" as="geometry">
                        <mxRectangle width="150" height="30" as="alternateBounds"/>
                    </mxGeometry>
                </mxCell>
                <mxCell id="170" value="" style="shape=tableRow;horizontal=0;startSize=0;swimlaneHead=0;swimlaneBody=0;fillColor=none;collapsible=0;dropTarget=0;points=[[0,0.5],[1,0.5]];portConstraint=eastwest;top=0;left=0;right=0;bottom=0;fontFamily=Tenorite;fontSource=https%3A%2F%2Ffonts.cdnfonts.com%2Fcss%2Ftenorite%3Fstyles%3D102681%2C102679%2C102680%2C102678;fontStyle=0" parent="166" vertex="1">
                    <mxGeometry y="60" width="180" height="30" as="geometry"/>
                </mxCell>
                <mxCell id="171" value="" style="shape=partialRectangle;connectable=0;fillColor=none;top=0;left=0;bottom=0;right=0;editable=1;overflow=hidden;fontFamily=Tenorite;fontSource=https%3A%2F%2Ffonts.cdnfonts.com%2Fcss%2Ftenorite%3Fstyles%3D102681%2C102679%2C102680%2C102678;fontStyle=0" parent="170" vertex="1">
                    <mxGeometry width="30" height="30" as="geometry">
                        <mxRectangle width="30" height="30" as="alternateBounds"/>
                    </mxGeometry>
                </mxCell>
                <mxCell id="172" value="request_id" style="shape=partialRectangle;connectable=0;fillColor=none;top=1;left=0;bottom=1;right=1;align=left;spacingLeft=6;overflow=hidden;fontFamily=Tenorite;fontSource=https%3A%2F%2Ffonts.cdnfonts.com%2Fcss%2Ftenorite%3Fstyles%3D102681%2C102679%2C102680%2C102678;fontStyle=0" parent="170" vertex="1">
                    <mxGeometry x="30" width="150" height="30" as="geometry">
                        <mxRectangle width="150" height="30" as="alternateBounds"/>
                    </mxGeometry>
                </mxCell>
                <mxCell id="173" value="" style="shape=tableRow;horizontal=0;startSize=0;swimlaneHead=0;swimlaneBody=0;fillColor=none;collapsible=0;dropTarget=0;points=[[0,0.5],[1,0.5]];portConstraint=eastwest;top=0;left=0;right=0;bottom=0;fontFamily=Tenorite;fontSource=https%3A%2F%2Ffonts.cdnfonts.com%2Fcss%2Ftenorite%3Fstyles%3D102681%2C102679%2C102680%2C102678;fontStyle=0" parent="166" vertex="1">
                    <mxGeometry y="90" width="180" height="30" as="geometry"/>
                </mxCell>
                <mxCell id="174" value="" style="shape=partialRectangle;connectable=0;fillColor=none;top=0;left=0;bottom=0;right=0;editable=1;overflow=hidden;fontFamily=Tenorite;fontSource=https%3A%2F%2Ffonts.cdnfonts.com%2Fcss%2Ftenorite%3Fstyles%3D102681%2C102679%2C102680%2C102678;fontStyle=0" parent="173" vertex="1">
                    <mxGeometry width="30" height="30" as="geometry">
                        <mxRectangle width="30" height="30" as="alternateBounds"/>
                    </mxGeometry>
                </mxCell>
                <mxCell id="175" value="user_id" style="shape=partialRectangle;connectable=0;fillColor=none;top=1;left=0;bottom=1;right=1;align=left;spacingLeft=6;overflow=hidden;fontFamily=Tenorite;fontSource=https%3A%2F%2Ffonts.cdnfonts.com%2Fcss%2Ftenorite%3Fstyles%3D102681%2C102679%2C102680%2C102678;fontStyle=0" parent="173" vertex="1">
                    <mxGeometry x="30" width="150" height="30" as="geometry">
                        <mxRectangle width="150" height="30" as="alternateBounds"/>
                    </mxGeometry>
                </mxCell>
                <mxCell id="176" value="" style="shape=tableRow;horizontal=0;startSize=0;swimlaneHead=0;swimlaneBody=0;fillColor=none;collapsible=0;dropTarget=0;points=[[0,0.5],[1,0.5]];portConstraint=eastwest;top=0;left=0;right=0;bottom=0;fontFamily=Tenorite;fontSource=https%3A%2F%2Ffonts.cdnfonts.com%2Fcss%2Ftenorite%3Fstyles%3D102681%2C102679%2C102680%2C102678;fontStyle=0" parent="166" vertex="1">
                    <mxGeometry y="120" width="180" height="30" as="geometry"/>
                </mxCell>
                <mxCell id="177" value="" style="shape=partialRectangle;connectable=0;fillColor=none;top=0;left=0;bottom=0;right=0;editable=1;overflow=hidden;fontFamily=Tenorite;fontSource=https%3A%2F%2Ffonts.cdnfonts.com%2Fcss%2Ftenorite%3Fstyles%3D102681%2C102679%2C102680%2C102678;fontStyle=0" parent="176" vertex="1">
                    <mxGeometry width="30" height="30" as="geometry">
                        <mxRectangle width="30" height="30" as="alternateBounds"/>
                    </mxGeometry>
                </mxCell>
                <mxCell id="178" value="approver_id" style="shape=partialRectangle;connectable=0;fillColor=none;top=1;left=0;bottom=1;right=1;align=left;spacingLeft=6;overflow=hidden;fontFamily=Tenorite;fontSource=https%3A%2F%2Ffonts.cdnfonts.com%2Fcss%2Ftenorite%3Fstyles%3D102681%2C102679%2C102680%2C102678;fontStyle=0" parent="176" vertex="1">
                    <mxGeometry x="30" width="150" height="30" as="geometry">
                        <mxRectangle width="150" height="30" as="alternateBounds"/>
                    </mxGeometry>
                </mxCell>
                <mxCell id="189" value="FK" style="shape=partialRectangle;connectable=0;fillColor=none;top=1;left=1;bottom=1;right=1;fontStyle=0;overflow=hidden;fontFamily=Tenorite;fontSource=https%3A%2F%2Ffonts.cdnfonts.com%2Fcss%2Ftenorite%3Fstyles%3D102681%2C102679%2C102680%2C102678;" parent="165" vertex="1">
                    <mxGeometry y="90" width="30" height="30" as="geometry">
                        <mxRectangle width="30" height="30" as="alternateBounds"/>
                    </mxGeometry>
                </mxCell>
                <mxCell id="190" value="FK" style="shape=partialRectangle;connectable=0;fillColor=none;top=1;left=1;bottom=1;right=1;fontStyle=0;overflow=hidden;fontFamily=Tenorite;fontSource=https%3A%2F%2Ffonts.cdnfonts.com%2Fcss%2Ftenorite%3Fstyles%3D102681%2C102679%2C102680%2C102678;" parent="165" vertex="1">
                    <mxGeometry y="60" width="30" height="30" as="geometry">
                        <mxRectangle width="30" height="30" as="alternateBounds"/>
                    </mxGeometry>
                </mxCell>
                <mxCell id="223" value="FK" style="shape=partialRectangle;connectable=0;fillColor=none;top=1;left=1;bottom=1;right=1;fontStyle=0;overflow=hidden;fontFamily=Tenorite;fontSource=https%3A%2F%2Ffonts.cdnfonts.com%2Fcss%2Ftenorite%3Fstyles%3D102681%2C102679%2C102680%2C102678;" parent="165" vertex="1">
                    <mxGeometry y="120" width="30" height="30" as="geometry">
                        <mxRectangle width="30" height="30" as="alternateBounds"/>
                    </mxGeometry>
                </mxCell>
                <mxCell id="233" value="" style="shape=tableRow;horizontal=0;startSize=0;swimlaneHead=0;swimlaneBody=0;fillColor=none;collapsible=0;dropTarget=0;points=[[0,0.5],[1,0.5]];portConstraint=eastwest;top=0;left=0;right=0;bottom=0;fontFamily=Tenorite;fontSource=https%3A%2F%2Ffonts.cdnfonts.com%2Fcss%2Ftenorite%3Fstyles%3D102681%2C102679%2C102680%2C102678;fontStyle=0" parent="165" vertex="1">
                    <mxGeometry y="150" width="180" height="30" as="geometry"/>
                </mxCell>
                <mxCell id="234" value="" style="shape=partialRectangle;connectable=0;fillColor=none;top=0;left=0;bottom=0;right=0;editable=1;overflow=hidden;fontFamily=Tenorite;fontSource=https%3A%2F%2Ffonts.cdnfonts.com%2Fcss%2Ftenorite%3Fstyles%3D102681%2C102679%2C102680%2C102678;fontStyle=0" parent="233" vertex="1">
                    <mxGeometry width="30" height="30" as="geometry">
                        <mxRectangle width="30" height="30" as="alternateBounds"/>
                    </mxGeometry>
                </mxCell>
                <mxCell id="235" value="status_id" style="shape=partialRectangle;connectable=0;fillColor=none;top=1;left=0;bottom=1;right=1;align=left;spacingLeft=6;overflow=hidden;fontFamily=Tenorite;fontSource=https%3A%2F%2Ffonts.cdnfonts.com%2Fcss%2Ftenorite%3Fstyles%3D102681%2C102679%2C102680%2C102678;fontStyle=0" parent="233" vertex="1">
                    <mxGeometry x="30" width="150" height="30" as="geometry">
                        <mxRectangle width="150" height="30" as="alternateBounds"/>
                    </mxGeometry>
                </mxCell>
                <mxCell id="236" value="FK" style="shape=partialRectangle;connectable=0;fillColor=none;top=1;left=1;bottom=1;right=1;fontStyle=0;overflow=hidden;fontFamily=Tenorite;fontSource=https%3A%2F%2Ffonts.cdnfonts.com%2Fcss%2Ftenorite%3Fstyles%3D102681%2C102679%2C102680%2C102678;" parent="165" vertex="1">
                    <mxGeometry y="150" width="30" height="30" as="geometry">
                        <mxRectangle width="30" height="30" as="alternateBounds"/>
                    </mxGeometry>
                </mxCell>
                <mxCell id="182" style="edgeStyle=orthogonalEdgeStyle;rounded=0;html=1;fontFamily=Tenorite;fontSource=https%3A%2F%2Ffonts.cdnfonts.com%2Fcss%2Ftenorite%3Fstyles%3D102681%2C102679%2C102680%2C102678;startArrow=ERmandOne;startFill=0;endArrow=ERoneToMany;endFill=0;entryX=0;entryY=0.5;entryDx=0;entryDy=0;" parent="1" source="77" target="170" edge="1">
                    <mxGeometry relative="1" as="geometry">
                        <mxPoint x="1170" y="640" as="targetPoint"/>
                        <Array as="points">
                            <mxPoint x="1110" y="565"/>
                            <mxPoint x="1110" y="775"/>
                        </Array>
                    </mxGeometry>
                </mxCell>
                <mxCell id="185" style="edgeStyle=orthogonalEdgeStyle;rounded=0;html=1;entryX=0;entryY=0.5;entryDx=0;entryDy=0;fontFamily=Tenorite;fontSource=https%3A%2F%2Ffonts.cdnfonts.com%2Fcss%2Ftenorite%3Fstyles%3D102681%2C102679%2C102680%2C102678;startArrow=ERmandOne;startFill=0;endArrow=ERoneToMany;endFill=0;" parent="1" source="3" target="173" edge="1">
                    <mxGeometry relative="1" as="geometry">
                        <Array as="points">
                            <mxPoint x="660" y="335"/>
                            <mxPoint x="660" y="1000"/>
                            <mxPoint x="1110" y="1000"/>
                            <mxPoint x="1110" y="805"/>
                        </Array>
                    </mxGeometry>
                </mxCell>
                <mxCell id="204" style="edgeStyle=orthogonalEdgeStyle;rounded=0;html=1;entryX=1;entryY=0.5;entryDx=0;entryDy=0;fontFamily=Tenorite;fontSource=https%3A%2F%2Ffonts.cdnfonts.com%2Fcss%2Ftenorite%3Fstyles%3D102681%2C102679%2C102680%2C102678;startArrow=ERmandOne;startFill=0;endArrow=ERoneToMany;endFill=0;" parent="1" source="3" target="195" edge="1">
                    <mxGeometry relative="1" as="geometry"/>
                </mxCell>
                <mxCell id="220" style="edgeStyle=orthogonalEdgeStyle;rounded=0;html=1;entryX=0;entryY=0.5;entryDx=0;entryDy=0;fontFamily=Tenorite;fontSource=https%3A%2F%2Ffonts.cdnfonts.com%2Fcss%2Ftenorite%3Fstyles%3D102681%2C102679%2C102680%2C102678;startArrow=ERmandOne;startFill=0;endArrow=ERoneToMany;endFill=0;" parent="1" source="192" target="86" edge="1">
                    <mxGeometry relative="1" as="geometry">
                        <Array as="points">
                            <mxPoint x="260" y="385"/>
                            <mxPoint x="260" y="655"/>
                        </Array>
                    </mxGeometry>
                </mxCell>
                <mxCell id="222" style="edgeStyle=orthogonalEdgeStyle;rounded=0;html=1;fontFamily=Tenorite;fontSource=https%3A%2F%2Ffonts.cdnfonts.com%2Fcss%2Ftenorite%3Fstyles%3D102681%2C102679%2C102680%2C102678;startArrow=ERmandOne;startFill=0;endArrow=ERoneToMany;endFill=0;entryX=0;entryY=0.5;entryDx=0;entryDy=0;" parent="1" source="192" target="176" edge="1">
                    <mxGeometry relative="1" as="geometry">
                        <Array as="points">
                            <mxPoint x="260" y="385"/>
                            <mxPoint x="260" y="600"/>
                            <mxPoint x="700" y="600"/>
                            <mxPoint x="700" y="780"/>
                            <mxPoint x="1090" y="780"/>
                            <mxPoint x="1090" y="835"/>
                        </Array>
                    </mxGeometry>
                </mxCell>
                <mxCell id="227" value="" style="shape=tableRow;horizontal=0;startSize=0;swimlaneHead=0;swimlaneBody=0;fillColor=none;collapsible=0;dropTarget=0;points=[[0,0.5],[1,0.5]];portConstraint=eastwest;top=0;left=0;right=0;bottom=0;fontFamily=Tenorite;fontSource=https%3A%2F%2Ffonts.cdnfonts.com%2Fcss%2Ftenorite%3Fstyles%3D102681%2C102679%2C102680%2C102678;fontStyle=0" parent="1" vertex="1">
                    <mxGeometry x="20" y="430" width="180" height="30" as="geometry"/>
                </mxCell>
                <mxCell id="228" value="" style="shape=partialRectangle;connectable=0;fillColor=none;top=0;left=0;bottom=0;right=0;editable=1;overflow=hidden;fontFamily=Tenorite;fontSource=https%3A%2F%2Ffonts.cdnfonts.com%2Fcss%2Ftenorite%3Fstyles%3D102681%2C102679%2C102680%2C102678;fontStyle=0" parent="227" vertex="1">
                    <mxGeometry width="30" height="30" as="geometry">
                        <mxRectangle width="30" height="30" as="alternateBounds"/>
                    </mxGeometry>
                </mxCell>
                <mxCell id="229" value="status_id" style="shape=partialRectangle;connectable=0;fillColor=none;top=1;left=0;bottom=1;right=1;align=left;spacingLeft=6;overflow=hidden;fontFamily=Tenorite;fontSource=https%3A%2F%2Ffonts.cdnfonts.com%2Fcss%2Ftenorite%3Fstyles%3D102681%2C102679%2C102680%2C102678;fontStyle=0" parent="227" vertex="1">
                    <mxGeometry x="30" width="150" height="30" as="geometry">
                        <mxRectangle width="150" height="30" as="alternateBounds"/>
                    </mxGeometry>
                </mxCell>
                <mxCell id="230" style="edgeStyle=orthogonalEdgeStyle;rounded=0;html=1;entryX=0;entryY=0.5;entryDx=0;entryDy=0;fontFamily=Tenorite;fontSource=https%3A%2F%2Ffonts.cdnfonts.com%2Fcss%2Ftenorite%3Fstyles%3D102681%2C102679%2C102680%2C102678;startArrow=ERmandOne;startFill=0;endArrow=ERoneToMany;endFill=0;" parent="1" source="119" target="227" edge="1">
                    <mxGeometry relative="1" as="geometry">
                        <Array as="points">
                            <mxPoint x="-20" y="725"/>
                            <mxPoint x="-20" y="445"/>
                        </Array>
                    </mxGeometry>
                </mxCell>
                <mxCell id="232" style="edgeStyle=orthogonalEdgeStyle;rounded=0;html=1;fontFamily=Tenorite;fontSource=https%3A%2F%2Ffonts.cdnfonts.com%2Fcss%2Ftenorite%3Fstyles%3D102681%2C102679%2C102680%2C102678;startArrow=ERmandOne;startFill=0;endArrow=ERoneToMany;endFill=0;entryX=0;entryY=0.5;entryDx=0;entryDy=0;" parent="1" source="119" target="233" edge="1">
                    <mxGeometry relative="1" as="geometry">
                        <mxPoint x="645.3333333333334" y="820" as="targetPoint"/>
                        <Array as="points">
                            <mxPoint x="640" y="725"/>
                            <mxPoint x="640" y="1020"/>
                            <mxPoint x="1130" y="1020"/>
                            <mxPoint x="1130" y="865"/>
                        </Array>
                    </mxGeometry>
                </mxCell>
                <mxCell id="237" value="" style="group" parent="1" vertex="1" connectable="0">
                    <mxGeometry x="20" y="340" width="180" height="120" as="geometry"/>
                </mxCell>
                <mxCell id="191" value="Approvers" style="shape=table;startSize=30;container=1;collapsible=1;childLayout=tableLayout;fixedRows=1;rowLines=0;fontStyle=0;align=center;resizeLast=1;fontFamily=Tenorite;fontSource=https%3A%2F%2Ffonts.cdnfonts.com%2Fcss%2Ftenorite%3Fstyles%3D102681%2C102679%2C102680%2C102678;" parent="237" vertex="1">
                    <mxGeometry width="180" height="90" as="geometry"/>
                </mxCell>
                <mxCell id="192" value="" style="shape=tableRow;horizontal=0;startSize=0;swimlaneHead=0;swimlaneBody=0;fillColor=none;collapsible=0;dropTarget=0;points=[[0,0.5],[1,0.5]];portConstraint=eastwest;top=0;left=0;right=0;bottom=1;fontFamily=Tenorite;fontSource=https%3A%2F%2Ffonts.cdnfonts.com%2Fcss%2Ftenorite%3Fstyles%3D102681%2C102679%2C102680%2C102678;fontStyle=0" parent="191" vertex="1">
                    <mxGeometry y="30" width="180" height="30" as="geometry"/>
                </mxCell>
                <mxCell id="193" value="PK" style="shape=partialRectangle;connectable=0;fillColor=none;top=0;left=0;bottom=0;right=0;fontStyle=0;overflow=hidden;fontFamily=Tenorite;fontSource=https%3A%2F%2Ffonts.cdnfonts.com%2Fcss%2Ftenorite%3Fstyles%3D102681%2C102679%2C102680%2C102678;" parent="192" vertex="1">
                    <mxGeometry width="30" height="30" as="geometry">
                        <mxRectangle width="30" height="30" as="alternateBounds"/>
                    </mxGeometry>
                </mxCell>
                <mxCell id="194" value="id" style="shape=partialRectangle;connectable=0;fillColor=none;top=0;left=0;bottom=0;right=0;align=left;spacingLeft=6;fontStyle=4;overflow=hidden;fontFamily=Tenorite;fontSource=https%3A%2F%2Ffonts.cdnfonts.com%2Fcss%2Ftenorite%3Fstyles%3D102681%2C102679%2C102680%2C102678;" parent="192" vertex="1">
                    <mxGeometry x="30" width="150" height="30" as="geometry">
                        <mxRectangle width="150" height="30" as="alternateBounds"/>
                    </mxGeometry>
                </mxCell>
                <mxCell id="195" value="" style="shape=tableRow;horizontal=0;startSize=0;swimlaneHead=0;swimlaneBody=0;fillColor=none;collapsible=0;dropTarget=0;points=[[0,0.5],[1,0.5]];portConstraint=eastwest;top=0;left=0;right=0;bottom=0;fontFamily=Tenorite;fontSource=https%3A%2F%2Ffonts.cdnfonts.com%2Fcss%2Ftenorite%3Fstyles%3D102681%2C102679%2C102680%2C102678;fontStyle=0" parent="191" vertex="1">
                    <mxGeometry y="60" width="180" height="30" as="geometry"/>
                </mxCell>
                <mxCell id="196" value="" style="shape=partialRectangle;connectable=0;fillColor=none;top=0;left=0;bottom=0;right=0;editable=1;overflow=hidden;fontFamily=Tenorite;fontSource=https%3A%2F%2Ffonts.cdnfonts.com%2Fcss%2Ftenorite%3Fstyles%3D102681%2C102679%2C102680%2C102678;fontStyle=0" parent="195" vertex="1">
                    <mxGeometry width="30" height="30" as="geometry">
                        <mxRectangle width="30" height="30" as="alternateBounds"/>
                    </mxGeometry>
                </mxCell>
                <mxCell id="197" value="user_id" style="shape=partialRectangle;connectable=0;fillColor=none;top=1;left=0;bottom=1;right=1;align=left;spacingLeft=6;overflow=hidden;fontFamily=Tenorite;fontSource=https%3A%2F%2Ffonts.cdnfonts.com%2Fcss%2Ftenorite%3Fstyles%3D102681%2C102679%2C102680%2C102678;fontStyle=0" parent="195" vertex="1">
                    <mxGeometry x="30" width="150" height="30" as="geometry">
                        <mxRectangle width="150" height="30" as="alternateBounds"/>
                    </mxGeometry>
                </mxCell>
                <mxCell id="231" value="FK" style="shape=partialRectangle;connectable=0;fillColor=none;top=1;left=1;bottom=1;right=1;fontStyle=0;overflow=hidden;fontFamily=Tenorite;fontSource=https%3A%2F%2Ffonts.cdnfonts.com%2Fcss%2Ftenorite%3Fstyles%3D102681%2C102679%2C102680%2C102678;" parent="237" vertex="1">
                    <mxGeometry y="90" width="30" height="30" as="geometry">
                        <mxRectangle width="30" height="30" as="alternateBounds"/>
                    </mxGeometry>
                </mxCell>
                <mxCell id="247" value="Divisions" style="shape=table;startSize=30;container=1;collapsible=1;childLayout=tableLayout;fixedRows=1;rowLines=0;fontStyle=0;align=center;resizeLast=1;fontFamily=Tenorite;fontSource=https%3A%2F%2Ffonts.cdnfonts.com%2Fcss%2Ftenorite%3Fstyles%3D102681%2C102679%2C102680%2C102678;" parent="1" vertex="1">
                    <mxGeometry x="-20" y="780" width="180" height="120" as="geometry"/>
                </mxCell>
                <mxCell id="248" value="" style="shape=tableRow;horizontal=0;startSize=0;swimlaneHead=0;swimlaneBody=0;fillColor=none;collapsible=0;dropTarget=0;points=[[0,0.5],[1,0.5]];portConstraint=eastwest;top=0;left=0;right=0;bottom=1;fontFamily=Tenorite;fontSource=https%3A%2F%2Ffonts.cdnfonts.com%2Fcss%2Ftenorite%3Fstyles%3D102681%2C102679%2C102680%2C102678;fontStyle=0" parent="247" vertex="1">
                    <mxGeometry y="30" width="180" height="30" as="geometry"/>
                </mxCell>
                <mxCell id="249" value="PK" style="shape=partialRectangle;connectable=0;fillColor=none;top=0;left=0;bottom=0;right=0;fontStyle=0;overflow=hidden;fontFamily=Tenorite;fontSource=https%3A%2F%2Ffonts.cdnfonts.com%2Fcss%2Ftenorite%3Fstyles%3D102681%2C102679%2C102680%2C102678;" parent="248" vertex="1">
                    <mxGeometry width="30" height="30" as="geometry">
                        <mxRectangle width="30" height="30" as="alternateBounds"/>
                    </mxGeometry>
                </mxCell>
                <mxCell id="250" value="id" style="shape=partialRectangle;connectable=0;fillColor=none;top=0;left=0;bottom=0;right=0;align=left;spacingLeft=6;fontStyle=4;overflow=hidden;fontFamily=Tenorite;fontSource=https%3A%2F%2Ffonts.cdnfonts.com%2Fcss%2Ftenorite%3Fstyles%3D102681%2C102679%2C102680%2C102678;" parent="248" vertex="1">
                    <mxGeometry x="30" width="150" height="30" as="geometry">
                        <mxRectangle width="150" height="30" as="alternateBounds"/>
                    </mxGeometry>
                </mxCell>
                <mxCell id="251" value="" style="shape=tableRow;horizontal=0;startSize=0;swimlaneHead=0;swimlaneBody=0;fillColor=none;collapsible=0;dropTarget=0;points=[[0,0.5],[1,0.5]];portConstraint=eastwest;top=0;left=0;right=0;bottom=0;fontFamily=Tenorite;fontSource=https%3A%2F%2Ffonts.cdnfonts.com%2Fcss%2Ftenorite%3Fstyles%3D102681%2C102679%2C102680%2C102678;fontStyle=0" parent="247" vertex="1">
                    <mxGeometry y="60" width="180" height="30" as="geometry"/>
                </mxCell>
                <mxCell id="252" value="" style="shape=partialRectangle;connectable=0;fillColor=none;top=0;left=0;bottom=0;right=0;editable=1;overflow=hidden;fontFamily=Tenorite;fontSource=https%3A%2F%2Ffonts.cdnfonts.com%2Fcss%2Ftenorite%3Fstyles%3D102681%2C102679%2C102680%2C102678;fontStyle=0" parent="251" vertex="1">
                    <mxGeometry width="30" height="30" as="geometry">
                        <mxRectangle width="30" height="30" as="alternateBounds"/>
                    </mxGeometry>
                </mxCell>
                <mxCell id="253" value="division_name" style="shape=partialRectangle;connectable=0;fillColor=none;top=1;left=0;bottom=1;right=1;align=left;spacingLeft=6;overflow=hidden;fontFamily=Tenorite;fontSource=https%3A%2F%2Ffonts.cdnfonts.com%2Fcss%2Ftenorite%3Fstyles%3D102681%2C102679%2C102680%2C102678;fontStyle=0" parent="251" vertex="1">
                    <mxGeometry x="30" width="150" height="30" as="geometry">
                        <mxRectangle width="150" height="30" as="alternateBounds"/>
                    </mxGeometry>
                </mxCell>
                <mxCell id="254" value="" style="shape=tableRow;horizontal=0;startSize=0;swimlaneHead=0;swimlaneBody=0;fillColor=none;collapsible=0;dropTarget=0;points=[[0,0.5],[1,0.5]];portConstraint=eastwest;top=0;left=0;right=0;bottom=0;fontFamily=Tenorite;fontSource=https%3A%2F%2Ffonts.cdnfonts.com%2Fcss%2Ftenorite%3Fstyles%3D102681%2C102679%2C102680%2C102678;fontStyle=0" parent="1" vertex="1">
                    <mxGeometry x="-20" y="870" width="180" height="30" as="geometry"/>
                </mxCell>
                <mxCell id="255" value="" style="shape=partialRectangle;connectable=0;fillColor=none;top=0;left=0;bottom=0;right=0;editable=1;overflow=hidden;fontFamily=Tenorite;fontSource=https%3A%2F%2Ffonts.cdnfonts.com%2Fcss%2Ftenorite%3Fstyles%3D102681%2C102679%2C102680%2C102678;fontStyle=0" parent="254" vertex="1">
                    <mxGeometry width="30" height="30" as="geometry">
                        <mxRectangle width="30" height="30" as="alternateBounds"/>
                    </mxGeometry>
                </mxCell>
                <mxCell id="256" value="status_id" style="shape=partialRectangle;connectable=0;fillColor=none;top=1;left=1;bottom=1;right=1;align=left;spacingLeft=6;overflow=hidden;fontFamily=Tenorite;fontSource=https%3A%2F%2Ffonts.cdnfonts.com%2Fcss%2Ftenorite%3Fstyles%3D102681%2C102679%2C102680%2C102678;fontStyle=0" parent="254" vertex="1">
                    <mxGeometry x="30" width="150" height="30" as="geometry">
                        <mxRectangle width="150" height="30" as="alternateBounds"/>
                    </mxGeometry>
                </mxCell>
                <mxCell id="257" style="edgeStyle=orthogonalEdgeStyle;rounded=0;html=1;fontFamily=Tenorite;fontSource=https%3A%2F%2Ffonts.cdnfonts.com%2Fcss%2Ftenorite%3Fstyles%3D102681%2C102679%2C102680%2C102678;startArrow=ERmandOne;startFill=0;endArrow=ERoneToMany;endFill=0;entryX=0;entryY=0.5;entryDx=0;entryDy=0;" parent="1" source="248" target="258" edge="1">
                    <mxGeometry relative="1" as="geometry">
                        <mxPoint x="190" y="530" as="targetPoint"/>
                        <Array as="points">
                            <mxPoint x="290" y="825"/>
                            <mxPoint x="290" y="455"/>
                        </Array>
                    </mxGeometry>
                </mxCell>
                <mxCell id="258" value="" style="shape=tableRow;horizontal=0;startSize=0;swimlaneHead=0;swimlaneBody=0;fillColor=none;collapsible=0;dropTarget=0;points=[[0,0.5],[1,0.5]];portConstraint=eastwest;top=0;left=0;right=0;bottom=0;fontFamily=Tenorite;fontSource=https%3A%2F%2Ffonts.cdnfonts.com%2Fcss%2Ftenorite%3Fstyles%3D102681%2C102679%2C102680%2C102678;fontStyle=0" parent="1" vertex="1">
                    <mxGeometry x="390" y="440" width="180" height="30" as="geometry"/>
                </mxCell>
                <mxCell id="259" value="" style="shape=partialRectangle;connectable=0;fillColor=none;top=0;left=0;bottom=0;right=0;editable=1;overflow=hidden;fontFamily=Tenorite;fontSource=https%3A%2F%2Ffonts.cdnfonts.com%2Fcss%2Ftenorite%3Fstyles%3D102681%2C102679%2C102680%2C102678;fontStyle=0" parent="258" vertex="1">
                    <mxGeometry width="30" height="30" as="geometry">
                        <mxRectangle width="30" height="30" as="alternateBounds"/>
                    </mxGeometry>
                </mxCell>
                <mxCell id="260" value="division_id" style="shape=partialRectangle;connectable=0;fillColor=none;top=1;left=0;bottom=1;right=1;align=left;spacingLeft=6;overflow=hidden;fontFamily=Tenorite;fontSource=https%3A%2F%2Ffonts.cdnfonts.com%2Fcss%2Ftenorite%3Fstyles%3D102681%2C102679%2C102680%2C102678;fontStyle=0" parent="258" vertex="1">
                    <mxGeometry x="30" width="150" height="30" as="geometry">
                        <mxRectangle width="150" height="30" as="alternateBounds"/>
                    </mxGeometry>
                </mxCell>
                <mxCell id="261" value="FK" style="shape=partialRectangle;connectable=0;fillColor=none;top=1;left=1;bottom=1;right=1;editable=1;overflow=hidden;fontFamily=Tenorite;fontSource=https%3A%2F%2Ffonts.cdnfonts.com%2Fcss%2Ftenorite%3Fstyles%3D102681%2C102679%2C102680%2C102678;fontStyle=0" parent="1" vertex="1">
                    <mxGeometry x="390" y="440" width="30" height="30" as="geometry">
                        <mxRectangle width="30" height="30" as="alternateBounds"/>
                    </mxGeometry>
                </mxCell>
                <mxCell id="262" style="edgeStyle=orthogonalEdgeStyle;rounded=0;html=1;entryX=0;entryY=0.5;entryDx=0;entryDy=0;fontFamily=Tenorite;fontSource=https%3A%2F%2Ffonts.cdnfonts.com%2Fcss%2Ftenorite%3Fstyles%3D102681%2C102679%2C102680%2C102678;startArrow=ERmandOne;startFill=0;endArrow=ERoneToMany;endFill=0;" parent="1" source="119" target="254" edge="1">
                    <mxGeometry relative="1" as="geometry">
                        <Array as="points">
                            <mxPoint x="-80" y="725"/>
                            <mxPoint x="-80" y="885"/>
                        </Array>
                    </mxGeometry>
                </mxCell>
                <mxCell id="263" value="FK" style="shape=partialRectangle;connectable=0;fillColor=none;top=1;left=1;bottom=1;right=1;editable=1;overflow=hidden;fontFamily=Tenorite;fontSource=https%3A%2F%2Ffonts.cdnfonts.com%2Fcss%2Ftenorite%3Fstyles%3D102681%2C102679%2C102680%2C102678;fontStyle=0" parent="1" vertex="1">
                    <mxGeometry x="-20" y="870" width="30" height="30" as="geometry">
                        <mxRectangle width="30" height="30" as="alternateBounds"/>
                    </mxGeometry>
                </mxCell>
                <mxCell id="264" value="Sites" style="shape=table;startSize=30;container=1;collapsible=1;childLayout=tableLayout;fixedRows=1;rowLines=0;fontStyle=0;align=center;resizeLast=1;fontFamily=Tenorite;fontSource=https%3A%2F%2Ffonts.cdnfonts.com%2Fcss%2Ftenorite%3Fstyles%3D102681%2C102679%2C102680%2C102678;" parent="1" vertex="1">
                    <mxGeometry x="20" y="530" width="180" height="120" as="geometry"/>
                </mxCell>
                <mxCell id="265" value="" style="shape=tableRow;horizontal=0;startSize=0;swimlaneHead=0;swimlaneBody=0;fillColor=none;collapsible=0;dropTarget=0;points=[[0,0.5],[1,0.5]];portConstraint=eastwest;top=0;left=0;right=0;bottom=1;fontFamily=Tenorite;fontSource=https%3A%2F%2Ffonts.cdnfonts.com%2Fcss%2Ftenorite%3Fstyles%3D102681%2C102679%2C102680%2C102678;fontStyle=0" parent="264" vertex="1">
                    <mxGeometry y="30" width="180" height="30" as="geometry"/>
                </mxCell>
                <mxCell id="266" value="PK" style="shape=partialRectangle;connectable=0;fillColor=none;top=0;left=0;bottom=0;right=0;fontStyle=0;overflow=hidden;fontFamily=Tenorite;fontSource=https%3A%2F%2Ffonts.cdnfonts.com%2Fcss%2Ftenorite%3Fstyles%3D102681%2C102679%2C102680%2C102678;" parent="265" vertex="1">
                    <mxGeometry width="30" height="30" as="geometry">
                        <mxRectangle width="30" height="30" as="alternateBounds"/>
                    </mxGeometry>
                </mxCell>
                <mxCell id="267" value="id" style="shape=partialRectangle;connectable=0;fillColor=none;top=0;left=0;bottom=0;right=0;align=left;spacingLeft=6;fontStyle=4;overflow=hidden;fontFamily=Tenorite;fontSource=https%3A%2F%2Ffonts.cdnfonts.com%2Fcss%2Ftenorite%3Fstyles%3D102681%2C102679%2C102680%2C102678;" parent="265" vertex="1">
                    <mxGeometry x="30" width="150" height="30" as="geometry">
                        <mxRectangle width="150" height="30" as="alternateBounds"/>
                    </mxGeometry>
                </mxCell>
                <mxCell id="268" value="" style="shape=tableRow;horizontal=0;startSize=0;swimlaneHead=0;swimlaneBody=0;fillColor=none;collapsible=0;dropTarget=0;points=[[0,0.5],[1,0.5]];portConstraint=eastwest;top=0;left=0;right=0;bottom=0;fontFamily=Tenorite;fontSource=https%3A%2F%2Ffonts.cdnfonts.com%2Fcss%2Ftenorite%3Fstyles%3D102681%2C102679%2C102680%2C102678;fontStyle=0" parent="264" vertex="1">
                    <mxGeometry y="60" width="180" height="30" as="geometry"/>
                </mxCell>
                <mxCell id="269" value="" style="shape=partialRectangle;connectable=0;fillColor=none;top=0;left=0;bottom=0;right=0;editable=1;overflow=hidden;fontFamily=Tenorite;fontSource=https%3A%2F%2Ffonts.cdnfonts.com%2Fcss%2Ftenorite%3Fstyles%3D102681%2C102679%2C102680%2C102678;fontStyle=0" parent="268" vertex="1">
                    <mxGeometry width="30" height="30" as="geometry">
                        <mxRectangle width="30" height="30" as="alternateBounds"/>
                    </mxGeometry>
                </mxCell>
                <mxCell id="270" value="site_code" style="shape=partialRectangle;connectable=0;fillColor=none;top=1;left=0;bottom=1;right=1;align=left;spacingLeft=6;overflow=hidden;fontFamily=Tenorite;fontSource=https%3A%2F%2Ffonts.cdnfonts.com%2Fcss%2Ftenorite%3Fstyles%3D102681%2C102679%2C102680%2C102678;fontStyle=0" parent="268" vertex="1">
                    <mxGeometry x="30" width="150" height="30" as="geometry">
                        <mxRectangle width="150" height="30" as="alternateBounds"/>
                    </mxGeometry>
                </mxCell>
                <mxCell id="274" value="" style="shape=tableRow;horizontal=0;startSize=0;swimlaneHead=0;swimlaneBody=0;fillColor=none;collapsible=0;dropTarget=0;points=[[0,0.5],[1,0.5]];portConstraint=eastwest;top=0;left=0;right=0;bottom=0;fontFamily=Tenorite;fontSource=https%3A%2F%2Ffonts.cdnfonts.com%2Fcss%2Ftenorite%3Fstyles%3D102681%2C102679%2C102680%2C102678;fontStyle=0" parent="1" vertex="1">
                    <mxGeometry x="20" y="620" width="180" height="30" as="geometry"/>
                </mxCell>
                <mxCell id="275" value="" style="shape=partialRectangle;connectable=0;fillColor=none;top=0;left=0;bottom=0;right=0;editable=1;overflow=hidden;fontFamily=Tenorite;fontSource=https%3A%2F%2Ffonts.cdnfonts.com%2Fcss%2Ftenorite%3Fstyles%3D102681%2C102679%2C102680%2C102678;fontStyle=0" parent="274" vertex="1">
                    <mxGeometry width="30" height="30" as="geometry">
                        <mxRectangle width="30" height="30" as="alternateBounds"/>
                    </mxGeometry>
                </mxCell>
                <mxCell id="276" value="site_name" style="shape=partialRectangle;connectable=0;fillColor=none;top=1;left=1;bottom=1;right=1;align=left;spacingLeft=6;overflow=hidden;fontFamily=Tenorite;fontSource=https%3A%2F%2Ffonts.cdnfonts.com%2Fcss%2Ftenorite%3Fstyles%3D102681%2C102679%2C102680%2C102678;fontStyle=0" parent="274" vertex="1">
                    <mxGeometry x="30" width="150" height="30" as="geometry">
                        <mxRectangle width="150" height="30" as="alternateBounds"/>
                    </mxGeometry>
                </mxCell>
                <mxCell id="277" style="edgeStyle=orthogonalEdgeStyle;rounded=0;html=1;fontFamily=Tenorite;fontSource=https%3A%2F%2Ffonts.cdnfonts.com%2Fcss%2Ftenorite%3Fstyles%3D102681%2C102679%2C102680%2C102678;startArrow=ERmandOne;startFill=0;endArrow=ERoneToMany;endFill=0;entryX=0;entryY=0.5;entryDx=0;entryDy=0;" parent="1" source="265" target="278" edge="1">
                    <mxGeometry relative="1" as="geometry">
                        <mxPoint x="230" y="510" as="targetPoint"/>
                        <Array as="points">
                            <mxPoint x="230" y="575"/>
                            <mxPoint x="230" y="485"/>
                        </Array>
                    </mxGeometry>
                </mxCell>
                <mxCell id="278" value="" style="shape=tableRow;horizontal=0;startSize=0;swimlaneHead=0;swimlaneBody=0;fillColor=none;collapsible=0;dropTarget=0;points=[[0,0.5],[1,0.5]];portConstraint=eastwest;top=0;left=0;right=0;bottom=0;fontFamily=Tenorite;fontSource=https%3A%2F%2Ffonts.cdnfonts.com%2Fcss%2Ftenorite%3Fstyles%3D102681%2C102679%2C102680%2C102678;fontStyle=0" parent="1" vertex="1">
                    <mxGeometry x="390" y="470" width="180" height="30" as="geometry"/>
                </mxCell>
                <mxCell id="279" value="" style="shape=partialRectangle;connectable=0;fillColor=none;top=0;left=0;bottom=0;right=0;editable=1;overflow=hidden;fontFamily=Tenorite;fontSource=https%3A%2F%2Ffonts.cdnfonts.com%2Fcss%2Ftenorite%3Fstyles%3D102681%2C102679%2C102680%2C102678;fontStyle=0" parent="278" vertex="1">
                    <mxGeometry width="30" height="30" as="geometry">
                        <mxRectangle width="30" height="30" as="alternateBounds"/>
                    </mxGeometry>
                </mxCell>
                <mxCell id="280" value="site_id" style="shape=partialRectangle;connectable=0;fillColor=none;top=1;left=0;bottom=1;right=1;align=left;spacingLeft=6;overflow=hidden;fontFamily=Tenorite;fontSource=https%3A%2F%2Ffonts.cdnfonts.com%2Fcss%2Ftenorite%3Fstyles%3D102681%2C102679%2C102680%2C102678;fontStyle=0" parent="278" vertex="1">
                    <mxGeometry x="30" width="150" height="30" as="geometry">
                        <mxRectangle width="150" height="30" as="alternateBounds"/>
                    </mxGeometry>
                </mxCell>
                <mxCell id="281" value="FK" style="shape=partialRectangle;connectable=0;fillColor=none;top=1;left=1;bottom=1;right=1;editable=1;overflow=hidden;fontFamily=Tenorite;fontSource=https%3A%2F%2Ffonts.cdnfonts.com%2Fcss%2Ftenorite%3Fstyles%3D102681%2C102679%2C102680%2C102678;fontStyle=0" parent="1" vertex="1">
                    <mxGeometry x="390" y="470" width="30" height="30" as="geometry">
                        <mxRectangle width="30" height="30" as="alternateBounds"/>
                    </mxGeometry>
                </mxCell>
                <mxCell id="284" style="edgeStyle=orthogonalEdgeStyle;rounded=0;html=1;fontFamily=Tenorite;fontSource=https%3A%2F%2Ffonts.cdnfonts.com%2Fcss%2Ftenorite%3Fstyles%3D102681%2C102679%2C102680%2C102678;startArrow=ERmandOne;startFill=0;endArrow=ERoneToMany;endFill=0;entryX=0;entryY=0.5;entryDx=0;entryDy=0;" parent="1" source="119" target="285" edge="1">
                    <mxGeometry relative="1" as="geometry">
                        <mxPoint x="620" y="680" as="targetPoint"/>
                        <Array as="points">
                            <mxPoint x="640" y="725"/>
                            <mxPoint x="640" y="685"/>
                        </Array>
                    </mxGeometry>
                </mxCell>
                <mxCell id="290" value="" style="shape=tableRow;horizontal=0;startSize=0;swimlaneHead=0;swimlaneBody=0;fillColor=none;collapsible=0;dropTarget=0;points=[[0,0.5],[1,0.5]];portConstraint=eastwest;top=0;left=0;right=0;bottom=0;fontFamily=Tenorite;fontSource=https%3A%2F%2Ffonts.cdnfonts.com%2Fcss%2Ftenorite%3Fstyles%3D102681%2C102679%2C102680%2C102678;fontStyle=0" parent="1" vertex="1">
                    <mxGeometry x="750" y="700" width="180" height="30" as="geometry"/>
                </mxCell>
                <mxCell id="291" value="" style="shape=partialRectangle;connectable=0;fillColor=none;top=0;left=0;bottom=0;right=0;editable=1;overflow=hidden;fontFamily=Tenorite;fontSource=https%3A%2F%2Ffonts.cdnfonts.com%2Fcss%2Ftenorite%3Fstyles%3D102681%2C102679%2C102680%2C102678;fontStyle=0" parent="290" vertex="1">
                    <mxGeometry width="30" height="30" as="geometry">
                        <mxRectangle width="30" height="30" as="alternateBounds"/>
                    </mxGeometry>
                </mxCell>
                <mxCell id="292" value="request_type_id" style="shape=partialRectangle;connectable=0;fillColor=none;top=1;left=0;bottom=1;right=1;align=left;spacingLeft=6;overflow=hidden;fontFamily=Tenorite;fontSource=https%3A%2F%2Ffonts.cdnfonts.com%2Fcss%2Ftenorite%3Fstyles%3D102681%2C102679%2C102680%2C102678;fontStyle=0" parent="290" vertex="1">
                    <mxGeometry x="30" width="150" height="30" as="geometry">
                        <mxRectangle width="150" height="30" as="alternateBounds"/>
                    </mxGeometry>
                </mxCell>
                <mxCell id="293" value="FK" style="shape=partialRectangle;connectable=0;fillColor=none;top=1;left=1;bottom=1;right=1;fontStyle=0;overflow=hidden;fontFamily=Tenorite;fontSource=https%3A%2F%2Ffonts.cdnfonts.com%2Fcss%2Ftenorite%3Fstyles%3D102681%2C102679%2C102680%2C102678;" parent="1" vertex="1">
                    <mxGeometry x="750" y="700" width="30" height="30" as="geometry">
                        <mxRectangle width="30" height="30" as="alternateBounds"/>
                    </mxGeometry>
                </mxCell>
                <mxCell id="294" value="Request_Types" style="shape=table;startSize=30;container=1;collapsible=1;childLayout=tableLayout;fixedRows=1;rowLines=0;fontStyle=0;align=center;resizeLast=1;fontFamily=Tenorite;fontSource=https%3A%2F%2Ffonts.cdnfonts.com%2Fcss%2Ftenorite%3Fstyles%3D102681%2C102679%2C102680%2C102678;" parent="1" vertex="1">
                    <mxGeometry x="1230" y="390" width="180" height="150" as="geometry"/>
                </mxCell>
                <mxCell id="295" value="" style="shape=tableRow;horizontal=0;startSize=0;swimlaneHead=0;swimlaneBody=0;fillColor=none;collapsible=0;dropTarget=0;points=[[0,0.5],[1,0.5]];portConstraint=eastwest;top=0;left=0;right=0;bottom=1;fontFamily=Tenorite;fontSource=https%3A%2F%2Ffonts.cdnfonts.com%2Fcss%2Ftenorite%3Fstyles%3D102681%2C102679%2C102680%2C102678;fontStyle=0" parent="294" vertex="1">
                    <mxGeometry y="30" width="180" height="30" as="geometry"/>
                </mxCell>
                <mxCell id="296" value="PK" style="shape=partialRectangle;connectable=0;fillColor=none;top=0;left=0;bottom=0;right=0;fontStyle=0;overflow=hidden;fontFamily=Tenorite;fontSource=https%3A%2F%2Ffonts.cdnfonts.com%2Fcss%2Ftenorite%3Fstyles%3D102681%2C102679%2C102680%2C102678;" parent="295" vertex="1">
                    <mxGeometry width="30" height="30" as="geometry">
                        <mxRectangle width="30" height="30" as="alternateBounds"/>
                    </mxGeometry>
                </mxCell>
                <mxCell id="297" value="id" style="shape=partialRectangle;connectable=0;fillColor=none;top=0;left=0;bottom=0;right=0;align=left;spacingLeft=6;fontStyle=4;overflow=hidden;fontFamily=Tenorite;fontSource=https%3A%2F%2Ffonts.cdnfonts.com%2Fcss%2Ftenorite%3Fstyles%3D102681%2C102679%2C102680%2C102678;" parent="295" vertex="1">
                    <mxGeometry x="30" width="150" height="30" as="geometry">
                        <mxRectangle width="150" height="30" as="alternateBounds"/>
                    </mxGeometry>
                </mxCell>
                <mxCell id="298" value="" style="shape=tableRow;horizontal=0;startSize=0;swimlaneHead=0;swimlaneBody=0;fillColor=none;collapsible=0;dropTarget=0;points=[[0,0.5],[1,0.5]];portConstraint=eastwest;top=0;left=0;right=0;bottom=0;fontFamily=Tenorite;fontSource=https%3A%2F%2Ffonts.cdnfonts.com%2Fcss%2Ftenorite%3Fstyles%3D102681%2C102679%2C102680%2C102678;fontStyle=0" parent="294" vertex="1">
                    <mxGeometry y="60" width="180" height="30" as="geometry"/>
                </mxCell>
                <mxCell id="299" value="" style="shape=partialRectangle;connectable=0;fillColor=none;top=0;left=0;bottom=0;right=0;editable=1;overflow=hidden;fontFamily=Tenorite;fontSource=https%3A%2F%2Ffonts.cdnfonts.com%2Fcss%2Ftenorite%3Fstyles%3D102681%2C102679%2C102680%2C102678;fontStyle=0" parent="298" vertex="1">
                    <mxGeometry width="30" height="30" as="geometry">
                        <mxRectangle width="30" height="30" as="alternateBounds"/>
                    </mxGeometry>
                </mxCell>
                <mxCell id="300" value="request_type_name" style="shape=partialRectangle;connectable=0;fillColor=none;top=1;left=0;bottom=1;right=1;align=left;spacingLeft=6;overflow=hidden;fontFamily=Tenorite;fontSource=https%3A%2F%2Ffonts.cdnfonts.com%2Fcss%2Ftenorite%3Fstyles%3D102681%2C102679%2C102680%2C102678;fontStyle=0" parent="298" vertex="1">
                    <mxGeometry x="30" width="150" height="30" as="geometry">
                        <mxRectangle width="150" height="30" as="alternateBounds"/>
                    </mxGeometry>
                </mxCell>
                <mxCell id="301" value="" style="shape=tableRow;horizontal=0;startSize=0;swimlaneHead=0;swimlaneBody=0;fillColor=none;collapsible=0;dropTarget=0;points=[[0,0.5],[1,0.5]];portConstraint=eastwest;top=0;left=0;right=0;bottom=0;fontFamily=Tenorite;fontSource=https%3A%2F%2Ffonts.cdnfonts.com%2Fcss%2Ftenorite%3Fstyles%3D102681%2C102679%2C102680%2C102678;fontStyle=0" parent="294" vertex="1">
                    <mxGeometry y="90" width="180" height="30" as="geometry"/>
                </mxCell>
                <mxCell id="302" value="" style="shape=partialRectangle;connectable=0;fillColor=none;top=0;left=0;bottom=0;right=0;editable=1;overflow=hidden;fontFamily=Tenorite;fontSource=https%3A%2F%2Ffonts.cdnfonts.com%2Fcss%2Ftenorite%3Fstyles%3D102681%2C102679%2C102680%2C102678;fontStyle=0" parent="301" vertex="1">
                    <mxGeometry width="30" height="30" as="geometry">
                        <mxRectangle width="30" height="30" as="alternateBounds"/>
                    </mxGeometry>
                </mxCell>
                <mxCell id="303" value="" style="shape=partialRectangle;connectable=0;fillColor=none;top=1;left=0;bottom=1;right=1;align=left;spacingLeft=6;overflow=hidden;fontFamily=Tenorite;fontSource=https%3A%2F%2Ffonts.cdnfonts.com%2Fcss%2Ftenorite%3Fstyles%3D102681%2C102679%2C102680%2C102678;fontStyle=0" parent="301" vertex="1">
                    <mxGeometry x="30" width="150" height="30" as="geometry">
                        <mxRectangle width="150" height="30" as="alternateBounds"/>
                    </mxGeometry>
                </mxCell>
                <mxCell id="304" value="" style="shape=tableRow;horizontal=0;startSize=0;swimlaneHead=0;swimlaneBody=0;fillColor=none;collapsible=0;dropTarget=0;points=[[0,0.5],[1,0.5]];portConstraint=eastwest;top=0;left=0;right=0;bottom=0;fontFamily=Tenorite;fontSource=https%3A%2F%2Ffonts.cdnfonts.com%2Fcss%2Ftenorite%3Fstyles%3D102681%2C102679%2C102680%2C102678;fontStyle=0" parent="294" vertex="1">
                    <mxGeometry y="120" width="180" height="30" as="geometry"/>
                </mxCell>
                <mxCell id="305" value="" style="shape=partialRectangle;connectable=0;fillColor=none;top=0;left=0;bottom=0;right=0;editable=1;overflow=hidden;fontFamily=Tenorite;fontSource=https%3A%2F%2Ffonts.cdnfonts.com%2Fcss%2Ftenorite%3Fstyles%3D102681%2C102679%2C102680%2C102678;fontStyle=0" parent="304" vertex="1">
                    <mxGeometry width="30" height="30" as="geometry">
                        <mxRectangle width="30" height="30" as="alternateBounds"/>
                    </mxGeometry>
                </mxCell>
                <mxCell id="306" value="status_id" style="shape=partialRectangle;connectable=0;fillColor=none;top=1;left=0;bottom=1;right=1;align=left;spacingLeft=6;overflow=hidden;fontFamily=Tenorite;fontSource=https%3A%2F%2Ffonts.cdnfonts.com%2Fcss%2Ftenorite%3Fstyles%3D102681%2C102679%2C102680%2C102678;fontStyle=0" parent="304" vertex="1">
                    <mxGeometry x="30" width="150" height="30" as="geometry">
                        <mxRectangle width="150" height="30" as="alternateBounds"/>
                    </mxGeometry>
                </mxCell>
                <mxCell id="308" style="edgeStyle=orthogonalEdgeStyle;html=1;rounded=0;entryX=0;entryY=0.5;entryDx=0;entryDy=0;endArrow=ERoneToMany;endFill=0;startArrow=ERmandOne;startFill=0;exitX=1;exitY=0.5;exitDx=0;exitDy=0;" parent="1" source="101" target="309" edge="1">
                    <mxGeometry relative="1" as="geometry">
                        <mxPoint x="1170" y="420" as="targetPoint"/>
                        <Array as="points">
                            <mxPoint x="1060" y="845"/>
                            <mxPoint x="1060" y="495"/>
                        </Array>
                    </mxGeometry>
                </mxCell>
                <mxCell id="309" value="" style="shape=tableRow;horizontal=0;startSize=0;swimlaneHead=0;swimlaneBody=0;fillColor=none;collapsible=0;dropTarget=0;points=[[0,0.5],[1,0.5]];portConstraint=eastwest;top=0;left=0;right=0;bottom=0;fontFamily=Tenorite;fontSource=https%3A%2F%2Ffonts.cdnfonts.com%2Fcss%2Ftenorite%3Fstyles%3D102681%2C102679%2C102680%2C102678;fontStyle=0" parent="1" vertex="1">
                    <mxGeometry x="1230" y="480" width="180" height="30" as="geometry"/>
                </mxCell>
                <mxCell id="310" value="" style="shape=partialRectangle;connectable=0;fillColor=none;top=0;left=0;bottom=0;right=0;editable=1;overflow=hidden;fontFamily=Tenorite;fontSource=https%3A%2F%2Ffonts.cdnfonts.com%2Fcss%2Ftenorite%3Fstyles%3D102681%2C102679%2C102680%2C102678;fontStyle=0" parent="309" vertex="1">
                    <mxGeometry width="30" height="30" as="geometry">
                        <mxRectangle width="30" height="30" as="alternateBounds"/>
                    </mxGeometry>
                </mxCell>
                <mxCell id="311" value="application_type_id" style="shape=partialRectangle;connectable=0;fillColor=none;top=1;left=0;bottom=1;right=1;align=left;spacingLeft=6;overflow=hidden;fontFamily=Tenorite;fontSource=https%3A%2F%2Ffonts.cdnfonts.com%2Fcss%2Ftenorite%3Fstyles%3D102681%2C102679%2C102680%2C102678;fontStyle=0" parent="309" vertex="1">
                    <mxGeometry x="30" width="150" height="30" as="geometry">
                        <mxRectangle width="150" height="30" as="alternateBounds"/>
                    </mxGeometry>
                </mxCell>
                <mxCell id="312" value="FK" style="shape=partialRectangle;connectable=0;fillColor=none;top=1;left=1;bottom=1;right=1;fontStyle=0;overflow=hidden;fontFamily=Tenorite;fontSource=https%3A%2F%2Ffonts.cdnfonts.com%2Fcss%2Ftenorite%3Fstyles%3D102681%2C102679%2C102680%2C102678;" parent="1" vertex="1">
                    <mxGeometry x="1230" y="480" width="30" height="30" as="geometry">
                        <mxRectangle width="30" height="30" as="alternateBounds"/>
                    </mxGeometry>
                </mxCell>
                <mxCell id="313" style="edgeStyle=orthogonalEdgeStyle;rounded=0;html=1;entryX=1;entryY=0.5;entryDx=0;entryDy=0;startArrow=ERmandOne;startFill=0;endArrow=ERoneToMany;endFill=0;exitX=0;exitY=0.5;exitDx=0;exitDy=0;" parent="1" source="295" target="290" edge="1">
                    <mxGeometry relative="1" as="geometry">
                        <Array as="points">
                            <mxPoint x="1150" y="435"/>
                            <mxPoint x="1150" y="715"/>
                        </Array>
                    </mxGeometry>
                </mxCell>
                <mxCell id="314" value="HRIS_Applications" style="shape=table;startSize=30;container=1;collapsible=1;childLayout=tableLayout;fixedRows=1;rowLines=0;fontStyle=0;align=center;resizeLast=1;fontFamily=Tenorite;fontSource=https%3A%2F%2Ffonts.cdnfonts.com%2Fcss%2Ftenorite%3Fstyles%3D102681%2C102679%2C102680%2C102678;" vertex="1" parent="1">
                    <mxGeometry x="1450" y="490" width="180" height="150" as="geometry"/>
                </mxCell>
                <mxCell id="315" value="" style="shape=tableRow;horizontal=0;startSize=0;swimlaneHead=0;swimlaneBody=0;fillColor=none;collapsible=0;dropTarget=0;points=[[0,0.5],[1,0.5]];portConstraint=eastwest;top=0;left=0;right=0;bottom=1;fontStyle=0;fontFamily=Tenorite;fontSource=https%3A%2F%2Ffonts.cdnfonts.com%2Fcss%2Ftenorite%3Fstyles%3D102681%2C102679%2C102680%2C102678;" vertex="1" parent="314">
                    <mxGeometry y="30" width="180" height="30" as="geometry"/>
                </mxCell>
                <mxCell id="316" value="PK" style="shape=partialRectangle;connectable=0;fillColor=none;top=0;left=0;bottom=0;right=0;fontStyle=0;overflow=hidden;fontFamily=Tenorite;fontSource=https%3A%2F%2Ffonts.cdnfonts.com%2Fcss%2Ftenorite%3Fstyles%3D102681%2C102679%2C102680%2C102678;" vertex="1" parent="315">
                    <mxGeometry width="30" height="30" as="geometry">
                        <mxRectangle width="30" height="30" as="alternateBounds"/>
                    </mxGeometry>
                </mxCell>
                <mxCell id="317" value="id" style="shape=partialRectangle;connectable=0;fillColor=none;top=0;left=0;bottom=0;right=0;align=left;spacingLeft=6;fontStyle=4;overflow=hidden;fontFamily=Tenorite;fontSource=https%3A%2F%2Ffonts.cdnfonts.com%2Fcss%2Ftenorite%3Fstyles%3D102681%2C102679%2C102680%2C102678;" vertex="1" parent="315">
                    <mxGeometry x="30" width="150" height="30" as="geometry">
                        <mxRectangle width="150" height="30" as="alternateBounds"/>
                    </mxGeometry>
                </mxCell>
                <mxCell id="318" value="" style="shape=tableRow;horizontal=0;startSize=0;swimlaneHead=0;swimlaneBody=0;fillColor=none;collapsible=0;dropTarget=0;points=[[0,0.5],[1,0.5]];portConstraint=eastwest;top=0;left=0;right=0;bottom=0;fontStyle=0;fontFamily=Tenorite;fontSource=https%3A%2F%2Ffonts.cdnfonts.com%2Fcss%2Ftenorite%3Fstyles%3D102681%2C102679%2C102680%2C102678;" vertex="1" parent="314">
                    <mxGeometry y="60" width="180" height="30" as="geometry"/>
                </mxCell>
                <mxCell id="319" value="FK" style="shape=partialRectangle;connectable=0;fillColor=none;top=1;left=1;bottom=1;right=1;editable=1;overflow=hidden;fontStyle=0;fontFamily=Tenorite;fontSource=https%3A%2F%2Ffonts.cdnfonts.com%2Fcss%2Ftenorite%3Fstyles%3D102681%2C102679%2C102680%2C102678;" vertex="1" parent="318">
                    <mxGeometry width="30" height="30" as="geometry">
                        <mxRectangle width="30" height="30" as="alternateBounds"/>
                    </mxGeometry>
                </mxCell>
                <mxCell id="320" value="request_id" style="shape=partialRectangle;connectable=0;fillColor=none;top=1;left=1;bottom=1;right=1;align=left;spacingLeft=6;overflow=hidden;fontStyle=0;fontFamily=Tenorite;fontSource=https%3A%2F%2Ffonts.cdnfonts.com%2Fcss%2Ftenorite%3Fstyles%3D102681%2C102679%2C102680%2C102678;" vertex="1" parent="318">
                    <mxGeometry x="30" width="150" height="30" as="geometry">
                        <mxRectangle width="150" height="30" as="alternateBounds"/>
                    </mxGeometry>
                </mxCell>
                <mxCell id="324" value="" style="shape=tableRow;horizontal=0;startSize=0;swimlaneHead=0;swimlaneBody=0;fillColor=none;collapsible=0;dropTarget=0;points=[[0,0.5],[1,0.5]];portConstraint=eastwest;top=0;left=0;right=0;bottom=0;fontStyle=0;fontFamily=Tenorite;fontSource=https%3A%2F%2Ffonts.cdnfonts.com%2Fcss%2Ftenorite%3Fstyles%3D102681%2C102679%2C102680%2C102678;" vertex="1" parent="314">
                    <mxGeometry y="90" width="180" height="30" as="geometry"/>
                </mxCell>
                <mxCell id="325" value="" style="shape=partialRectangle;connectable=0;fillColor=none;top=0;left=0;bottom=0;right=0;editable=1;overflow=hidden;fontStyle=0;fontFamily=Tenorite;fontSource=https%3A%2F%2Ffonts.cdnfonts.com%2Fcss%2Ftenorite%3Fstyles%3D102681%2C102679%2C102680%2C102678;" vertex="1" parent="324">
                    <mxGeometry width="30" height="30" as="geometry">
                        <mxRectangle width="30" height="30" as="alternateBounds"/>
                    </mxGeometry>
                </mxCell>
                <mxCell id="326" value="expiration" style="shape=partialRectangle;connectable=0;fillColor=none;top=0;left=0;bottom=0;right=0;align=left;spacingLeft=6;overflow=hidden;fontStyle=0;fontFamily=Tenorite;fontSource=https%3A%2F%2Ffonts.cdnfonts.com%2Fcss%2Ftenorite%3Fstyles%3D102681%2C102679%2C102680%2C102678;" vertex="1" parent="324">
                    <mxGeometry x="30" width="150" height="30" as="geometry">
                        <mxRectangle width="150" height="30" as="alternateBounds"/>
                    </mxGeometry>
                </mxCell>
                <mxCell id="327" style="edgeStyle=orthogonalEdgeStyle;html=1;entryX=0;entryY=0.5;entryDx=0;entryDy=0;fontFamily=Tenorite;fontSource=https%3A%2F%2Ffonts.cdnfonts.com%2Fcss%2Ftenorite%3Fstyles%3D102681%2C102679%2C102680%2C102678;rounded=0;startArrow=ERmandOne;startFill=0;endArrow=ERmandOne;endFill=0;" edge="1" parent="1" source="77" target="318">
                    <mxGeometry relative="1" as="geometry"/>
                </mxCell>
                <mxCell id="328" value="Access_Modules_HRIS_Applications" style="shape=table;startSize=30;container=1;collapsible=1;childLayout=tableLayout;fixedRows=1;rowLines=0;fontStyle=0;align=center;resizeLast=1;fontFamily=Tenorite;fontSource=https%3A%2F%2Ffonts.cdnfonts.com%2Fcss%2Ftenorite%3Fstyles%3D102681%2C102679%2C102680%2C102678;fontSize=11;" vertex="1" parent="1">
                    <mxGeometry x="1750" y="490" width="180" height="150" as="geometry"/>
                </mxCell>
                <mxCell id="329" value="" style="shape=tableRow;horizontal=0;startSize=0;swimlaneHead=0;swimlaneBody=0;fillColor=none;collapsible=0;dropTarget=0;points=[[0,0.5],[1,0.5]];portConstraint=eastwest;top=0;left=0;right=0;bottom=1;fontStyle=0;fontFamily=Tenorite;fontSource=https%3A%2F%2Ffonts.cdnfonts.com%2Fcss%2Ftenorite%3Fstyles%3D102681%2C102679%2C102680%2C102678;" vertex="1" parent="328">
                    <mxGeometry y="30" width="180" height="30" as="geometry"/>
                </mxCell>
                <mxCell id="330" value="PK" style="shape=partialRectangle;connectable=0;fillColor=none;top=0;left=0;bottom=0;right=0;fontStyle=0;overflow=hidden;fontFamily=Tenorite;fontSource=https%3A%2F%2Ffonts.cdnfonts.com%2Fcss%2Ftenorite%3Fstyles%3D102681%2C102679%2C102680%2C102678;" vertex="1" parent="329">
                    <mxGeometry width="30" height="30" as="geometry">
                        <mxRectangle width="30" height="30" as="alternateBounds"/>
                    </mxGeometry>
                </mxCell>
                <mxCell id="331" value="id" style="shape=partialRectangle;connectable=0;fillColor=none;top=0;left=0;bottom=0;right=0;align=left;spacingLeft=6;fontStyle=4;overflow=hidden;fontFamily=Tenorite;fontSource=https%3A%2F%2Ffonts.cdnfonts.com%2Fcss%2Ftenorite%3Fstyles%3D102681%2C102679%2C102680%2C102678;" vertex="1" parent="329">
                    <mxGeometry x="30" width="150" height="30" as="geometry">
                        <mxRectangle width="150" height="30" as="alternateBounds"/>
                    </mxGeometry>
                </mxCell>
                <mxCell id="332" value="" style="shape=tableRow;horizontal=0;startSize=0;swimlaneHead=0;swimlaneBody=0;fillColor=none;collapsible=0;dropTarget=0;points=[[0,0.5],[1,0.5]];portConstraint=eastwest;top=0;left=0;right=0;bottom=0;fontStyle=0;fontFamily=Tenorite;fontSource=https%3A%2F%2Ffonts.cdnfonts.com%2Fcss%2Ftenorite%3Fstyles%3D102681%2C102679%2C102680%2C102678;" vertex="1" parent="328">
                    <mxGeometry y="60" width="180" height="30" as="geometry"/>
                </mxCell>
                <mxCell id="333" value="FK" style="shape=partialRectangle;connectable=0;fillColor=none;top=1;left=1;bottom=1;right=1;editable=1;overflow=hidden;fontStyle=0;fontFamily=Tenorite;fontSource=https%3A%2F%2Ffonts.cdnfonts.com%2Fcss%2Ftenorite%3Fstyles%3D102681%2C102679%2C102680%2C102678;" vertex="1" parent="332">
                    <mxGeometry width="30" height="30" as="geometry">
                        <mxRectangle width="30" height="30" as="alternateBounds"/>
                    </mxGeometry>
                </mxCell>
                <mxCell id="334" value="hris_application_id" style="shape=partialRectangle;connectable=0;fillColor=none;top=1;left=1;bottom=1;right=1;align=left;spacingLeft=6;overflow=hidden;fontStyle=0;fontFamily=Tenorite;fontSource=https%3A%2F%2Ffonts.cdnfonts.com%2Fcss%2Ftenorite%3Fstyles%3D102681%2C102679%2C102680%2C102678;" vertex="1" parent="332">
                    <mxGeometry x="30" width="150" height="30" as="geometry">
                        <mxRectangle width="150" height="30" as="alternateBounds"/>
                    </mxGeometry>
                </mxCell>
                <mxCell id="335" value="" style="shape=tableRow;horizontal=0;startSize=0;swimlaneHead=0;swimlaneBody=0;fillColor=none;collapsible=0;dropTarget=0;points=[[0,0.5],[1,0.5]];portConstraint=eastwest;top=0;left=0;right=0;bottom=0;fontStyle=0;fontFamily=Tenorite;fontSource=https%3A%2F%2Ffonts.cdnfonts.com%2Fcss%2Ftenorite%3Fstyles%3D102681%2C102679%2C102680%2C102678;" vertex="1" parent="328">
                    <mxGeometry y="90" width="180" height="30" as="geometry"/>
                </mxCell>
                <mxCell id="336" value="FK" style="shape=partialRectangle;connectable=0;fillColor=none;top=1;left=1;bottom=1;right=1;editable=1;overflow=hidden;fontStyle=0;fontFamily=Tenorite;fontSource=https%3A%2F%2Ffonts.cdnfonts.com%2Fcss%2Ftenorite%3Fstyles%3D102681%2C102679%2C102680%2C102678;" vertex="1" parent="335">
                    <mxGeometry width="30" height="30" as="geometry">
                        <mxRectangle width="30" height="30" as="alternateBounds"/>
                    </mxGeometry>
                </mxCell>
                <mxCell id="337" value="access_module_id" style="shape=partialRectangle;connectable=0;fillColor=none;top=1;left=1;bottom=1;right=1;align=left;spacingLeft=6;overflow=hidden;fontStyle=0;fontFamily=Tenorite;fontSource=https%3A%2F%2Ffonts.cdnfonts.com%2Fcss%2Ftenorite%3Fstyles%3D102681%2C102679%2C102680%2C102678;fontSize=12;" vertex="1" parent="335">
                    <mxGeometry x="30" width="150" height="30" as="geometry">
                        <mxRectangle width="150" height="30" as="alternateBounds"/>
                    </mxGeometry>
                </mxCell>
                <mxCell id="338" value="" style="shape=tableRow;horizontal=0;startSize=0;swimlaneHead=0;swimlaneBody=0;fillColor=none;collapsible=0;dropTarget=0;points=[[0,0.5],[1,0.5]];portConstraint=eastwest;top=0;left=0;right=0;bottom=0;fontStyle=0;fontFamily=Tenorite;fontSource=https%3A%2F%2Ffonts.cdnfonts.com%2Fcss%2Ftenorite%3Fstyles%3D102681%2C102679%2C102680%2C102678;" vertex="1" parent="328">
                    <mxGeometry y="120" width="180" height="30" as="geometry"/>
                </mxCell>
                <mxCell id="339" value="FK" style="shape=partialRectangle;connectable=0;fillColor=none;top=1;left=1;bottom=1;right=1;editable=1;overflow=hidden;fontStyle=0;fontFamily=Tenorite;fontSource=https%3A%2F%2Ffonts.cdnfonts.com%2Fcss%2Ftenorite%3Fstyles%3D102681%2C102679%2C102680%2C102678;" vertex="1" parent="338">
                    <mxGeometry width="30" height="30" as="geometry">
                        <mxRectangle width="30" height="30" as="alternateBounds"/>
                    </mxGeometry>
                </mxCell>
                <mxCell id="340" value="status_id" style="shape=partialRectangle;connectable=0;fillColor=none;top=0;left=0;bottom=0;right=0;align=left;spacingLeft=6;overflow=hidden;fontStyle=0;fontFamily=Tenorite;fontSource=https%3A%2F%2Ffonts.cdnfonts.com%2Fcss%2Ftenorite%3Fstyles%3D102681%2C102679%2C102680%2C102678;" vertex="1" parent="338">
                    <mxGeometry x="30" width="150" height="30" as="geometry">
                        <mxRectangle width="150" height="30" as="alternateBounds"/>
                    </mxGeometry>
                </mxCell>
                <mxCell id="341" value="Access_Modules" style="shape=table;startSize=30;container=1;collapsible=1;childLayout=tableLayout;fixedRows=1;rowLines=0;fontStyle=0;align=center;resizeLast=1;fontFamily=Tenorite;fontSource=https%3A%2F%2Ffonts.cdnfonts.com%2Fcss%2Ftenorite%3Fstyles%3D102681%2C102679%2C102680%2C102678;" vertex="1" parent="1">
                    <mxGeometry x="2050" y="490" width="180" height="150" as="geometry"/>
                </mxCell>
                <mxCell id="342" value="" style="shape=tableRow;horizontal=0;startSize=0;swimlaneHead=0;swimlaneBody=0;fillColor=none;collapsible=0;dropTarget=0;points=[[0,0.5],[1,0.5]];portConstraint=eastwest;top=0;left=0;right=0;bottom=1;fontStyle=0;fontFamily=Tenorite;fontSource=https%3A%2F%2Ffonts.cdnfonts.com%2Fcss%2Ftenorite%3Fstyles%3D102681%2C102679%2C102680%2C102678;" vertex="1" parent="341">
                    <mxGeometry y="30" width="180" height="30" as="geometry"/>
                </mxCell>
                <mxCell id="343" value="PK" style="shape=partialRectangle;connectable=0;fillColor=none;top=0;left=0;bottom=0;right=0;fontStyle=0;overflow=hidden;fontFamily=Tenorite;fontSource=https%3A%2F%2Ffonts.cdnfonts.com%2Fcss%2Ftenorite%3Fstyles%3D102681%2C102679%2C102680%2C102678;" vertex="1" parent="342">
                    <mxGeometry width="30" height="30" as="geometry">
                        <mxRectangle width="30" height="30" as="alternateBounds"/>
                    </mxGeometry>
                </mxCell>
                <mxCell id="344" value="id" style="shape=partialRectangle;connectable=0;fillColor=none;top=0;left=0;bottom=0;right=0;align=left;spacingLeft=6;fontStyle=4;overflow=hidden;fontFamily=Tenorite;fontSource=https%3A%2F%2Ffonts.cdnfonts.com%2Fcss%2Ftenorite%3Fstyles%3D102681%2C102679%2C102680%2C102678;" vertex="1" parent="342">
                    <mxGeometry x="30" width="150" height="30" as="geometry">
                        <mxRectangle width="150" height="30" as="alternateBounds"/>
                    </mxGeometry>
                </mxCell>
                <mxCell id="345" value="" style="shape=tableRow;horizontal=0;startSize=0;swimlaneHead=0;swimlaneBody=0;fillColor=none;collapsible=0;dropTarget=0;points=[[0,0.5],[1,0.5]];portConstraint=eastwest;top=0;left=0;right=0;bottom=0;fontStyle=0;fontFamily=Tenorite;fontSource=https%3A%2F%2Ffonts.cdnfonts.com%2Fcss%2Ftenorite%3Fstyles%3D102681%2C102679%2C102680%2C102678;" vertex="1" parent="341">
                    <mxGeometry y="60" width="180" height="30" as="geometry"/>
                </mxCell>
                <mxCell id="346" value="" style="shape=partialRectangle;connectable=0;fillColor=none;top=0;left=0;bottom=0;right=0;editable=1;overflow=hidden;fontStyle=0;fontFamily=Tenorite;fontSource=https%3A%2F%2Ffonts.cdnfonts.com%2Fcss%2Ftenorite%3Fstyles%3D102681%2C102679%2C102680%2C102678;" vertex="1" parent="345">
                    <mxGeometry width="30" height="30" as="geometry">
                        <mxRectangle width="30" height="30" as="alternateBounds"/>
                    </mxGeometry>
                </mxCell>
                <mxCell id="347" value="access_module_name" style="shape=partialRectangle;connectable=0;fillColor=none;top=0;left=0;bottom=0;right=0;align=left;spacingLeft=6;overflow=hidden;fontStyle=0;fontFamily=Tenorite;fontSource=https%3A%2F%2Ffonts.cdnfonts.com%2Fcss%2Ftenorite%3Fstyles%3D102681%2C102679%2C102680%2C102678;" vertex="1" parent="345">
                    <mxGeometry x="30" width="150" height="30" as="geometry">
                        <mxRectangle width="150" height="30" as="alternateBounds"/>
                    </mxGeometry>
                </mxCell>
                <mxCell id="348" value="" style="shape=tableRow;horizontal=0;startSize=0;swimlaneHead=0;swimlaneBody=0;fillColor=none;collapsible=0;dropTarget=0;points=[[0,0.5],[1,0.5]];portConstraint=eastwest;top=0;left=0;right=0;bottom=0;fontStyle=0;fontFamily=Tenorite;fontSource=https%3A%2F%2Ffonts.cdnfonts.com%2Fcss%2Ftenorite%3Fstyles%3D102681%2C102679%2C102680%2C102678;" vertex="1" parent="341">
                    <mxGeometry y="90" width="180" height="30" as="geometry"/>
                </mxCell>
                <mxCell id="349" value="" style="shape=partialRectangle;connectable=0;fillColor=none;top=0;left=0;bottom=0;right=0;editable=1;overflow=hidden;fontStyle=0;fontFamily=Tenorite;fontSource=https%3A%2F%2Ffonts.cdnfonts.com%2Fcss%2Ftenorite%3Fstyles%3D102681%2C102679%2C102680%2C102678;" vertex="1" parent="348">
                    <mxGeometry width="30" height="30" as="geometry">
                        <mxRectangle width="30" height="30" as="alternateBounds"/>
                    </mxGeometry>
                </mxCell>
                <mxCell id="350" value="description" style="shape=partialRectangle;connectable=0;fillColor=none;top=1;left=1;bottom=1;right=1;align=left;spacingLeft=6;overflow=hidden;fontStyle=0;fontFamily=Tenorite;fontSource=https%3A%2F%2Ffonts.cdnfonts.com%2Fcss%2Ftenorite%3Fstyles%3D102681%2C102679%2C102680%2C102678;fontSize=12;" vertex="1" parent="348">
                    <mxGeometry x="30" width="150" height="30" as="geometry">
                        <mxRectangle width="150" height="30" as="alternateBounds"/>
                    </mxGeometry>
                </mxCell>
                <mxCell id="351" value="" style="shape=tableRow;horizontal=0;startSize=0;swimlaneHead=0;swimlaneBody=0;fillColor=none;collapsible=0;dropTarget=0;points=[[0,0.5],[1,0.5]];portConstraint=eastwest;top=0;left=0;right=0;bottom=0;fontStyle=0;fontFamily=Tenorite;fontSource=https%3A%2F%2Ffonts.cdnfonts.com%2Fcss%2Ftenorite%3Fstyles%3D102681%2C102679%2C102680%2C102678;" vertex="1" parent="341">
                    <mxGeometry y="120" width="180" height="30" as="geometry"/>
                </mxCell>
                <mxCell id="352" value="FK" style="shape=partialRectangle;connectable=0;fillColor=none;top=1;left=1;bottom=1;right=1;editable=1;overflow=hidden;fontStyle=0;fontFamily=Tenorite;fontSource=https%3A%2F%2Ffonts.cdnfonts.com%2Fcss%2Ftenorite%3Fstyles%3D102681%2C102679%2C102680%2C102678;" vertex="1" parent="351">
                    <mxGeometry width="30" height="30" as="geometry">
                        <mxRectangle width="30" height="30" as="alternateBounds"/>
                    </mxGeometry>
                </mxCell>
                <mxCell id="353" value="status_id" style="shape=partialRectangle;connectable=0;fillColor=none;top=1;left=1;bottom=1;right=1;align=left;spacingLeft=6;overflow=hidden;fontStyle=0;fontFamily=Tenorite;fontSource=https%3A%2F%2Ffonts.cdnfonts.com%2Fcss%2Ftenorite%3Fstyles%3D102681%2C102679%2C102680%2C102678;" vertex="1" parent="351">
                    <mxGeometry x="30" width="150" height="30" as="geometry">
                        <mxRectangle width="150" height="30" as="alternateBounds"/>
                    </mxGeometry>
                </mxCell>
                <mxCell id="354" value="" style="shape=tableRow;horizontal=0;startSize=0;swimlaneHead=0;swimlaneBody=0;fillColor=none;collapsible=0;dropTarget=0;points=[[0,0.5],[1,0.5]];portConstraint=eastwest;top=0;left=0;right=0;bottom=0;fontStyle=0;fontFamily=Tenorite;fontSource=https%3A%2F%2Ffonts.cdnfonts.com%2Fcss%2Ftenorite%3Fstyles%3D102681%2C102679%2C102680%2C102678;" vertex="1" parent="1">
                    <mxGeometry x="1450" y="610" width="180" height="30" as="geometry"/>
                </mxCell>
                <mxCell id="355" value="FK" style="shape=partialRectangle;connectable=0;fillColor=none;top=1;left=1;bottom=1;right=1;editable=1;overflow=hidden;fontStyle=0;fontFamily=Tenorite;fontSource=https%3A%2F%2Ffonts.cdnfonts.com%2Fcss%2Ftenorite%3Fstyles%3D102681%2C102679%2C102680%2C102678;" vertex="1" parent="354">
                    <mxGeometry width="30" height="30" as="geometry">
                        <mxRectangle width="30" height="30" as="alternateBounds"/>
                    </mxGeometry>
                </mxCell>
                <mxCell id="356" value="status_id" style="shape=partialRectangle;connectable=0;fillColor=none;top=1;left=1;bottom=1;right=1;align=left;spacingLeft=6;overflow=hidden;fontStyle=0;fontFamily=Tenorite;fontSource=https%3A%2F%2Ffonts.cdnfonts.com%2Fcss%2Ftenorite%3Fstyles%3D102681%2C102679%2C102680%2C102678;" vertex="1" parent="354">
                    <mxGeometry x="30" width="150" height="30" as="geometry">
                        <mxRectangle width="150" height="30" as="alternateBounds"/>
                    </mxGeometry>
                </mxCell>
                <mxCell id="357" style="edgeStyle=orthogonalEdgeStyle;rounded=0;html=1;fontFamily=Tenorite;fontSource=https%3A%2F%2Ffonts.cdnfonts.com%2Fcss%2Ftenorite%3Fstyles%3D102681%2C102679%2C102680%2C102678;fontSize=11;startArrow=ERmandOne;startFill=0;endArrow=ERoneToMany;endFill=0;" edge="1" parent="1" source="315" target="332">
                    <mxGeometry relative="1" as="geometry"/>
                </mxCell>
                <mxCell id="359" style="edgeStyle=orthogonalEdgeStyle;rounded=0;html=1;fontFamily=Tenorite;fontSource=https%3A%2F%2Ffonts.cdnfonts.com%2Fcss%2Ftenorite%3Fstyles%3D102681%2C102679%2C102680%2C102678;fontSize=12;startArrow=ERmandOne;startFill=0;endArrow=ERoneToMany;endFill=0;entryX=1;entryY=0.5;entryDx=0;entryDy=0;" edge="1" parent="1" source="342" target="335">
                    <mxGeometry relative="1" as="geometry">
                        <mxPoint x="1960" y="570" as="targetPoint"/>
                    </mxGeometry>
                </mxCell>
                <mxCell id="401" value="" style="shape=tableRow;horizontal=0;startSize=0;swimlaneHead=0;swimlaneBody=0;fillColor=none;collapsible=0;dropTarget=0;points=[[0,0.5],[1,0.5]];portConstraint=eastwest;top=0;left=0;right=0;bottom=0;fontFamily=Tenorite;fontSource=https%3A%2F%2Ffonts.cdnfonts.com%2Fcss%2Ftenorite%3Fstyles%3D102681%2C102679%2C102680%2C102678;fontStyle=0" vertex="1" parent="1">
                    <mxGeometry x="750" y="730" width="180" height="30" as="geometry"/>
                </mxCell>
                <mxCell id="402" value="" style="shape=partialRectangle;connectable=0;fillColor=none;top=1;left=1;bottom=1;right=1;editable=1;overflow=hidden;fontFamily=Tenorite;fontSource=https%3A%2F%2Ffonts.cdnfonts.com%2Fcss%2Ftenorite%3Fstyles%3D102681%2C102679%2C102680%2C102678;fontStyle=0" vertex="1" parent="401">
                    <mxGeometry width="30" height="30" as="geometry">
                        <mxRectangle width="30" height="30" as="alternateBounds"/>
                    </mxGeometry>
                </mxCell>
                <mxCell id="403" value="ticket_id" style="shape=partialRectangle;connectable=0;fillColor=none;top=1;left=0;bottom=1;right=1;align=left;spacingLeft=6;overflow=hidden;fontFamily=Tenorite;fontSource=https%3A%2F%2Ffonts.cdnfonts.com%2Fcss%2Ftenorite%3Fstyles%3D102681%2C102679%2C102680%2C102678;fontStyle=0" vertex="1" parent="401">
                    <mxGeometry x="30" width="150" height="30" as="geometry">
                        <mxRectangle width="150" height="30" as="alternateBounds"/>
                    </mxGeometry>
                </mxCell>
            </root>
        </mxGraphModel>
    </diagram>
</mxfile>